<?xml version="1.0" encoding="utf-8"?>
<!-- Generator: Adobe Illustrator 24.1.2, SVG Export Plug-In . SVG Version: 6.00 Build 0)  -->
<svg version="1.1" id="Слой_1" xmlns="http://www.w3.org/2000/svg" xmlns:xlink="http://www.w3.org/1999/xlink" x="0px" y="0px"
	 viewBox="0 0 884 884" style="enable-background:new 0 0 884 884;" xml:space="preserve">
<style type="text/css">
	.st0{display:none;fill:#FFFFFF;}
	.st1{fill:#EA5D00;}
	.st2{fill:#FF8C00;}
	.st3{fill:url(#SVGID_1_);}
	.st4{fill:none;stroke:#000000;stroke-width:0.5;stroke-linecap:round;stroke-linejoin:round;}
	.st5{fill:#007439;}
	.st6{fill:#00B358;}
	.st7{fill:url(#SVGID_2_);stroke:#000000;stroke-width:2;stroke-miterlimit:10;}
	.st8{fill:url(#SVGID_3_);stroke:#000000;stroke-width:2;stroke-miterlimit:10;}
	.st9{enable-background:new    ;}
	.st10{clip-path:url(#SVGID_5_);}
	.st11{clip-path:url(#SVGID_7_);}
	.st12{clip-path:url(#SVGID_9_);}
	.st13{clip-path:url(#SVGID_11_);}
	.st14{clip-path:url(#SVGID_13_);}
	.st15{clip-path:url(#SVGID_15_);}
	.st16{clip-path:url(#SVGID_17_);}
	.st17{clip-path:url(#SVGID_19_);}
	.st18{clip-path:url(#SVGID_23_);fill:#FFAB00;}
	.st19{fill:url(#SVGID_24_);stroke:#000000;stroke-width:2;stroke-miterlimit:10;}
	.st20{fill:url(#SVGID_25_);stroke:#000000;stroke-width:2;stroke-miterlimit:10;}
	.st21{clip-path:url(#SVGID_27_);}
	.st22{clip-path:url(#SVGID_29_);}
	.st23{clip-path:url(#SVGID_31_);}
	.st24{clip-path:url(#SVGID_33_);}
	.st25{clip-path:url(#SVGID_35_);}
	.st26{clip-path:url(#SVGID_37_);}
	.st27{clip-path:url(#SVGID_39_);}
	.st28{clip-path:url(#SVGID_41_);}
	.st29{clip-path:url(#SVGID_45_);fill:#FFAB00;}
	.st30{fill:url(#SVGID_46_);stroke:#000000;stroke-width:2;stroke-miterlimit:10;}
	.st31{fill:url(#SVGID_47_);stroke:#000000;stroke-width:2;stroke-miterlimit:10;}
	.st32{clip-path:url(#SVGID_49_);}
	.st33{clip-path:url(#SVGID_51_);}
	.st34{clip-path:url(#SVGID_53_);}
	.st35{clip-path:url(#SVGID_55_);}
	.st36{clip-path:url(#SVGID_57_);}
	.st37{clip-path:url(#SVGID_59_);}
	.st38{clip-path:url(#SVGID_61_);}
	.st39{clip-path:url(#SVGID_63_);}
	.st40{clip-path:url(#SVGID_67_);fill:#FFAB00;}
	.st41{fill:#1924B1;}
</style>
<path class="st0" d="M292.69,358.61"/>
<g>
	<g id="XMLID_1_">
		<g>
			<path class="st1" d="M773.51,371.62l0.4,377.53c-0.07,33.98-27.63,61.54-61.47,61.54H179.72c-33.85,0-61.41-27.56-61.41-61.47
				V421.52c0-33.78,27.42-61.27,61.2-61.47l20.47,0.07v-82.34c0-33.91,27.56-61.47,61.41-61.47l4.28,0.4l458,92.17
				C769.69,321.19,773.77,356.5,773.51,371.62z M732.91,749.21V380.65c0,13.58-21.14,20.4-41.2,20.4H179.72
				c-11.3,0-20.47,9.16-20.47,20.47v327.69c0,11.3,9.16,20.47,20.47,20.47h532.71C723.74,769.68,732.91,760.52,732.91,749.21z
				 M691.63,360.12c16.39,0.2,19.93-11.17,19.73-11.24l-451.71-91.51c-10.43,0.87-18.73,9.7-18.73,20.4v82.34H691.63z"/>
			<path class="st2" d="M732.91,380.65v368.56c0,11.3-9.16,20.47-20.47,20.47H179.72c-11.3,0-20.47-9.16-20.47-20.47V421.52
				c0-11.3,9.16-20.47,20.47-20.47H691.7C711.77,401.05,732.91,394.23,732.91,380.65z M241.2,626.47c22.61,0,41-18.33,40.94-41
				c0-22.61-18.33-40.94-40.94-40.94s-40.94,18.33-40.94,40.94C200.26,608.14,218.59,626.47,241.2,626.47z"/>
			<path class="st2" d="M711.37,348.88c0.2,0.07-3.34,11.44-19.73,11.24h-450.7v-82.34c0-10.7,8.29-19.53,18.73-20.4L711.37,348.88z
				"/>
			<radialGradient id="SVGID_1_" cx="241.1968" cy="585.5014" r="40.9534" gradientUnits="userSpaceOnUse">
				<stop  offset="0" style="stop-color:#666666"/>
				<stop  offset="0.2403" style="stop-color:#5D5D5D"/>
				<stop  offset="0.6316" style="stop-color:#464546"/>
				<stop  offset="0.8399" style="stop-color:#373537"/>
			</radialGradient>
			<path class="st3" d="M282.13,585.47c0.07,22.68-18.33,41-40.94,41s-40.94-18.33-40.94-41c0-22.61,18.33-40.94,40.94-40.94
				S282.13,562.86,282.13,585.47z"/>
		</g>
		<g>
			<path class="st4" d="M241.2,626.47c-22.61,0-40.94-18.33-40.94-41c0-22.61,18.33-40.94,40.94-40.94s40.94,18.33,40.94,40.94
				C282.2,608.14,263.81,626.47,241.2,626.47z"/>
		</g>
	</g>
</g>
<g>
	<g>
		<g>
			<g id="XMLID_2_">
				<g>
					<path class="st5" d="M517.54,147.67C506.27,203.6,495,259.51,483.75,315.38c-107.68-108.94-265.99,33.64-373.65-75.29
						c11.26-55.9,22.53-111.81,33.79-167.71C251.55,181.33,409.86,38.74,517.54,147.67z M474.93,296.9
						c10.09-50.07,20.18-100.15,30.27-150.24c-103.67-87.24-248.85,31.47-352.53-55.74c-10.09,50.07-20.18,100.15-30.27,150.24
						C226.08,328.4,371.25,209.69,474.93,296.9z"/>
					<path class="st6" d="M505.21,146.66c-10.09,50.09-20.18,100.17-30.27,150.24c-103.68-87.21-248.85,31.5-352.53-55.74
						c10.09-50.09,20.18-100.17,30.27-150.24C256.36,178.13,401.53,59.42,505.21,146.66z M302.01,252.49
						c47.95-7.24,90.8-32.63,97.2-64.41c6.63-32.92-25.64-60.01-73.59-52.75c-48,7.23-90.81,32.63-97.21,64.41
						C221.77,232.66,254,259.73,302.01,252.49z"/>
					<path class="st5" d="M399.21,188.08c-6.4,31.78-49.25,57.16-97.2,64.41c-48.01,7.24-80.24-19.84-73.6-52.76
						c6.4-31.78,49.21-57.17,97.21-64.41C373.57,128.08,405.84,155.17,399.21,188.08z M303.45,245.32
						c42.09-6.11,79.91-29.55,85.55-57.55c5.8-28.8-22.77-51.4-64.82-45.3c-42.07,6.11-79.92,29.57-85.57,57.58
						C232.81,228.82,261.35,251.43,303.45,245.32z"/>
					<path class="st5" d="M389,187.77c-5.64,28.01-43.46,51.45-85.55,57.55c-42.11,6.1-70.64-16.5-64.84-45.27
						c5.64-28.01,43.5-51.47,85.57-57.58C366.23,136.37,394.81,158.97,389,187.77z M334.57,206.66c0.85-4.24-0.8-7.22-4.96-8.86
						c-2.38-0.99-6.6-1.67-12.64-2.03c-1.8,8.94-3.6,17.87-5.4,26.82c8.65-1.35,14.97-4.19,19.02-8.54
						C332.7,211.8,334.03,209.34,334.57,206.66z M311.96,186.18c1.61-8,3.22-15.97,4.79-23.96c-6.63,1.01-11.63,2.94-14.94,5.83
						c-3.33,2.89-5.25,5.72-5.81,8.51c-0.68,3.36,0.46,5.8,3.38,7.3C302.31,185.38,306.49,186.14,311.96,186.18z"/>
					<path class="st5" d="M329.61,197.8c4.15,1.64,5.81,4.62,4.96,8.86c-0.54,2.67-1.87,5.14-3.98,7.38
						c-4.05,4.34-10.38,7.18-19.02,8.54c1.8-8.94,3.6-17.87,5.4-26.82C323.01,196.13,327.23,196.81,329.61,197.8z"/>
					<path class="st5" d="M316.74,162.22c-1.57,7.98-3.17,15.95-4.79,23.96c-5.47-0.04-9.65-0.79-12.59-2.31
						c-2.92-1.5-4.05-3.94-3.38-7.3c0.56-2.79,2.48-5.62,5.81-8.51C305.12,165.16,310.12,163.24,316.74,162.22z"/>
				</g>
				<g>
				</g>
			</g>
		</g>
	</g>
</g>
<g>
	<g>
		<g>
			<g id="XMLID_3_">
				<g>
					<path class="st5" d="M469.51,159.38c-6.4,31.78-49.25,57.16-97.2,64.41c-48.01,7.24-80.24-19.84-73.6-52.76
						c6.4-31.78,49.21-57.17,97.21-64.41C443.87,99.38,476.14,126.47,469.51,159.38z"/>
					<path class="st5" d="M587.84,118.97c-11.27,55.93-22.54,111.84-33.79,167.71c-107.68-108.94-265.99,33.64-373.65-75.29
						c11.26-55.9,22.53-111.81,33.79-167.71C321.85,152.63,480.16,10.04,587.84,118.97z M545.23,268.2
						c10.09-50.07,20.18-100.15,30.27-150.24c-103.67-87.24-248.85,31.47-352.53-55.74c-10.09,50.07-20.18,100.15-30.27,150.24
						C296.38,299.7,441.55,180.99,545.23,268.2z"/>
					<path class="st6" d="M575.51,117.96c-10.09,50.09-20.18,100.17-30.27,150.24c-103.68-87.21-248.85,31.5-352.53-55.74
						c10.09-50.09,20.18-100.17,30.27-150.24C326.66,149.43,471.83,30.72,575.51,117.96z M372.31,223.79
						c47.95-7.24,90.8-32.63,97.2-64.41c6.63-32.92-25.64-60.01-73.59-52.75c-48,7.23-90.81,32.63-97.21,64.41
						C292.07,203.96,324.3,231.04,372.31,223.79z"/>
				</g>
				<g>
				</g>
			</g>
		</g>
	</g>
</g>
<g>
	<g>
		<g>
			<g id="XMLID_4_">
				<g>
					<path class="st5" d="M561.55,227.12c-6.4,31.78-49.25,57.16-97.2,64.41c-48.01,7.24-80.24-19.84-73.6-52.76
						c6.4-31.78,49.21-57.17,97.21-64.41C535.91,167.11,568.18,194.2,561.55,227.12z"/>
					<path class="st5" d="M679.88,186.7c-11.27,55.93-22.54,111.84-33.79,167.71c-107.68-108.94-265.99,33.64-373.65-75.29
						c11.26-55.9,22.53-111.81,33.79-167.71C413.89,220.36,572.2,77.77,679.88,186.7z M637.27,335.93
						c10.09-50.07,20.18-100.15,30.27-150.24c-103.67-87.24-248.85,31.47-352.53-55.74c-10.09,50.07-20.18,100.15-30.27,150.24
						C388.42,367.44,533.59,248.72,637.27,335.93z"/>
					<path class="st6" d="M667.54,185.69c-10.09,50.09-20.18,100.17-30.27,150.24c-103.68-87.21-248.85,31.5-352.53-55.74
						c10.09-50.09,20.18-100.17,30.27-150.24C418.7,217.16,563.87,98.45,667.54,185.69z M464.35,291.52
						c47.95-7.24,90.8-32.63,97.2-64.41c6.63-32.92-25.64-60.01-73.59-52.75c-48,7.23-90.81,32.63-97.21,64.41
						C384.11,271.69,416.34,298.77,464.35,291.52z"/>
				</g>
				<g>
				</g>
			</g>
		</g>
	</g>
</g>
<g>
	<g>
		<g>
			<g id="XMLID_5_">
				<g>
					<path class="st5" d="M417.21,267.76c-6.4,31.78-49.25,57.16-97.2,64.41c-48.01,7.24-80.24-19.84-73.6-52.76
						c6.4-31.78,49.21-57.17,97.21-64.41C391.58,207.75,423.85,234.84,417.21,267.76z"/>
					<path class="st5" d="M535.55,227.35c-11.27,55.93-22.54,111.84-33.79,167.71C394.08,286.12,235.76,428.7,128.1,319.77
						c11.26-55.9,22.53-111.81,33.79-167.71C269.56,261,427.87,118.41,535.55,227.35z M492.94,376.58
						c10.09-50.07,20.18-100.15,30.27-150.24c-103.67-87.24-248.85,31.47-352.53-55.74c-10.09,50.07-20.18,100.15-30.27,150.24
						C244.09,408.08,389.26,289.36,492.94,376.58z"/>
					<path class="st6" d="M523.21,226.33c-10.09,50.09-20.18,100.17-30.27,150.24c-103.68-87.21-248.85,31.5-352.53-55.74
						c10.09-50.09,20.18-100.17,30.27-150.24C274.36,257.81,419.54,139.09,523.21,226.33z M320.01,332.17
						c47.95-7.24,90.8-32.63,97.2-64.41c6.63-32.92-25.64-60.01-73.59-52.75c-48,7.23-90.81,32.63-97.21,64.41
						C239.78,312.33,272.01,339.41,320.01,332.17z"/>
				</g>
				<g>
				</g>
			</g>
		</g>
	</g>
</g>
<g>
	
		<linearGradient id="SVGID_2_" gradientUnits="userSpaceOnUse" x1="675.8762" y1="974.9449" x2="842.3735" y2="974.9449" gradientTransform="matrix(0.1403 -0.9901 0.9901 0.1403 -501.4451 924.5118)">
		<stop  offset="0" style="stop-color:#FF7300"/>
		<stop  offset="0.1213" style="stop-color:#FD7600"/>
		<stop  offset="0.221" style="stop-color:#F78001"/>
		<stop  offset="0.3127" style="stop-color:#ED9202"/>
		<stop  offset="0.3615" style="stop-color:#E59E03"/>
		<stop  offset="0.8652" style="stop-color:#E5C500"/>
		<stop  offset="0.9944" style="stop-color:#BF6F00"/>
	</linearGradient>
	<path class="st7" d="M611.36,305.4c-8.68,45.19-33.58,80.19-55.6,78.15c-22-2.02-32.8-40.31-24.12-85.5s33.58-80.19,55.6-78.15
		C609.25,221.93,620.06,260.23,611.36,305.4z"/>
	
		<linearGradient id="SVGID_3_" gradientUnits="userSpaceOnUse" x1="709.929" y1="986.6578" x2="876.4263" y2="986.6578" gradientTransform="matrix(0.1403 -0.9901 0.9901 0.1403 -501.4451 924.5118)">
		<stop  offset="0" style="stop-color:#FF7300"/>
		<stop  offset="0.4526" style="stop-color:#EB9402"/>
		<stop  offset="0.5721" style="stop-color:#E59E03"/>
		<stop  offset="0.6638" style="stop-color:#E5A303"/>
		<stop  offset="0.7765" style="stop-color:#E5B201"/>
		<stop  offset="0.8728" style="stop-color:#E5C500"/>
	</linearGradient>
	<path class="st8" d="M623.04,306.47c-8.68,45.19-33.58,80.19-55.6,78.15c-22-2.02-32.8-40.31-24.12-85.5
		c8.68-45.19,33.58-80.19,55.6-78.15S631.73,261.31,623.04,306.47z"/>
	<g>
		<g>
			<g class="st9">
				<g>
					<defs>
						<polygon id="SVGID_4_" points="546.15,267.11 589.03,245.91 627.09,344.94 584.21,366.14 						"/>
					</defs>
					<clipPath id="SVGID_5_">
						<use xlink:href="#SVGID_4_"  style="overflow:visible;"/>
					</clipPath>
					<g class="st10">
						<g>
							<g>
								<g>
									<g>
										<g>
											<defs>
												<polyline id="SVGID_6_" points="576.78,346.84 547.1,266.62 596.46,265.21 626.16,345.4 576.78,346.84 												"/>
											</defs>
											<clipPath id="SVGID_7_">
												<use xlink:href="#SVGID_6_"  style="overflow:visible;"/>
											</clipPath>
											<g class="st11">
												<g>
													<defs>
														<polyline id="SVGID_8_" points="568.21,323.65 552.69,266.46 605.05,288.41 620.57,345.57 568.21,323.65 
																													"/>
													</defs>
													<clipPath id="SVGID_9_">
														<use xlink:href="#SVGID_8_"  style="overflow:visible;"/>
													</clipPath>
													<g class="st12">
														<g>
															<defs>
																<path id="SVGID_10_" d="M570.52,273.94l-4.11,7.17l-6.02-7.66l-3.94,6.74l6.03,7.68l-2.66,4.58l7.53,9.57l2.64-4.6
																	l2.35,3.01l-2.64,4.6l7.53,9.53l2.66-4.58l21.72,27.62l7.38-12.75c1.43-2.45,2.08-5.39,1.95-8.81
																	c-0.19-3.41-1.08-7.11-2.77-10.99c-1.66-3.9-3.94-7.69-6.82-11.36c-4.47-5.65-8.64-9.06-12.48-10.14
																	c-3.86-1.06-6.94,0.34-9.21,4.26l-3.41,5.86l-2.35-3.01l4.15-7.17L570.52,273.94 M583.76,303.26l3.4-5.83
																	c2.17-3.8,5.56-2.78,10.13,3.05c2.17,2.76,3.66,5.44,4.42,8.1c0.78,2.65,0.68,4.85-0.28,6.56l-3.54,6.08
																	L583.76,303.26"/>
															</defs>
															<clipPath id="SVGID_11_">
																<use xlink:href="#SVGID_10_"  style="overflow:visible;"/>
															</clipPath>
															<g class="st13">
																<g>
																	<defs>
																		<path id="SVGID_12_" d="M601.87,309.13c0.58,2.32,0.48,4.27-0.34,5.85C602.35,313.4,602.45,311.45,601.87,309.13
																			 M601.8,308.9l-0.09-0.35c-0.78-2.65-2.24-5.34-4.42-8.1c-2.1-2.65-3.91-4.29-5.49-4.96
																			c1.59,0.66,3.39,2.31,5.49,4.96c2.17,2.76,3.66,5.44,4.42,8.1L601.8,308.9 M609.36,308.19
																			c-0.32-0.9-0.67-1.88-1.06-2.83C608.69,306.32,609.05,307.28,609.36,308.19 M609.9,310.03l-0.09-0.31
																			L609.9,310.03"/>
																	</defs>
																	<clipPath id="SVGID_13_">
																		<use xlink:href="#SVGID_12_"  style="overflow:visible;"/>
																	</clipPath>
																	<g class="st14">
																		<g>
																			<defs>
																				<polyline id="SVGID_14_" points="589.55,293.15 608.49,301.12 614.26,322.25 595.29,314.32 589.55,293.15 
																																									"/>
																			</defs>
																			<clipPath id="SVGID_15_">
																				<use xlink:href="#SVGID_14_"  style="overflow:visible;"/>
																			</clipPath>
																			<g class="st15">
																				<g>
																					<defs>
																						<path id="SVGID_16_" d="M592.15,295.66l-0.34-0.17L592.15,295.66 M592.3,295.75l-0.12-0.07L592.3,295.75
																							 M592.43,295.81l-0.05-0.03L592.43,295.81 M597.64,300.9l-0.35-0.44L597.64,300.9 M599.05,302.94
																							c-0.42-0.68-0.89-1.35-1.41-2.04C598.15,301.58,598.62,302.28,599.05,302.94 M602.23,311.2l0.01,0.06
																							L602.23,311.2 M602.18,310.77l0,0.09L602.18,310.77 M602.11,310.31l0.01,0.15L602.11,310.31 M602.03,309.8
																							l0.05,0.34L602.03,309.8 M601.87,309.13l0.15,0.65L601.87,309.13 M601.63,308.27l0.09,0.31L601.63,308.27
																							 M601.31,307.33l-0.15-0.43c-0.29-0.67-0.61-1.39-1-2.12c-0.34-0.61-0.69-1.2-1.1-1.82
																							C600.03,304.45,600.77,305.9,601.31,307.33 M601.31,307.33l0.05,0.15L601.31,307.33 M609.3,308.07l0.05,0.12
																							L609.3,308.07"/>
																					</defs>
																					<clipPath id="SVGID_17_">
																						<use xlink:href="#SVGID_16_"  style="overflow:visible;"/>
																					</clipPath>
																					<g class="st16">
																						<g>
																							<defs>
																								<polyline id="SVGID_18_" points="588.92,292.62 605.16,292.13 612.61,312.16 596.36,312.65 588.92,292.62 
																																																	"/>
																							</defs>
																							<clipPath id="SVGID_19_">
																								<use xlink:href="#SVGID_18_"  style="overflow:visible;"/>
																							</clipPath>
																							<g class="st17">
																								<g>
																									<defs>
																										<path id="SVGID_20_" d="M597.92,301.3L597.92,301.3L597.92,301.3 M597.95,301.34L597.95,301.34
																											L597.95,301.34 M598.08,301.53C598.07,301.51,598.07,301.51,598.08,301.53
																											C598.07,301.51,598.07,301.51,598.08,301.53 M599.7,303.99c-0.17-0.29-0.34-0.57-0.51-0.86l0,0
																											C599.36,303.42,599.53,303.7,599.7,303.99L599.7,303.99 M599.93,304.36c-0.07-0.1-0.13-0.22-0.2-0.33l0,0
																											C599.8,304.14,599.88,304.24,599.93,304.36L599.93,304.36"/>
																									</defs>
																									<clipPath id="SVGID_21_">
																										<use xlink:href="#SVGID_20_"  style="overflow:visible;"/>
																									</clipPath>
																								</g>
																							</g>
																						</g>
																					</g>
																				</g>
																			</g>
																		</g>
																	</g>
																</g>
															</g>
														</g>
													</g>
												</g>
												<g>
													<defs>
														<polyline id="SVGID_22_" points="568.21,323.65 552.69,266.46 605.05,288.41 620.57,345.57 568.21,323.65 
																													"/>
													</defs>
													<clipPath id="SVGID_23_">
														<use xlink:href="#SVGID_22_"  style="overflow:visible;"/>
													</clipPath>
													<path class="st18" d="M583.76,303.26l3.35-5.82c1.2-2.07,2.76-2.7,4.66-1.92c1.59,0.66,3.39,2.31,5.49,4.96
														c0.65,0.83,1.24,1.66,1.76,2.49c0.43,0.61,0.77,1.21,1.1,1.82c0.39,0.73,0.71,1.41,1,2.12l0.17,0.41
														c0.15,0.43,0.3,0.82,0.41,1.25l0.09,0.35l0.07,0.23c0.58,2.32,0.48,4.27-0.34,5.85l-0.08,0.15l-3.54,6.08
														L583.76,303.26 M608.62,306.18c-0.1-0.27-0.2-0.55-0.28-0.75l-0.15-0.3c-1.66-3.9-3.94-7.69-6.82-11.36
														c-4.47-5.65-8.64-9.06-12.48-10.14c-3.86-1.06-6.94,0.34-9.21,4.26l-3.41,5.86l-2.35-3.01l4.15-7.17l-7.53-9.57
														l-4.18,7.16l-6.02-7.66l-3.92,6.73l0,0l0.01,0.02l6.02,7.66l-2.66,4.58l7.53,9.57l2.64-4.6l2.35,3.01l-2.64,4.6
														l7.53,9.53l2.66-4.58l21.7,27.6l0,0l7.38-12.75c1.43-2.45,2.08-5.39,1.95-8.81c-0.09-1.94-0.43-3.93-0.97-6.02
														l-0.09-0.31c-0.13-0.5-0.31-1.01-0.48-1.51l-0.05-0.12c-0.12-0.39-0.26-0.76-0.39-1.13
														C608.8,306.7,608.72,306.45,608.62,306.18"/>
												</g>
											</g>
										</g>
									</g>
								</g>
							</g>
						</g>
					</g>
				</g>
			</g>
		</g>
	</g>
</g>
<g>
	
		<linearGradient id="SVGID_24_" gradientUnits="userSpaceOnUse" x1="675.6127" y1="1019.2994" x2="842.1099" y2="1019.2994" gradientTransform="matrix(0.1403 -0.9901 0.9901 0.1403 -501.4451 924.5118)">
		<stop  offset="0" style="stop-color:#FF7300"/>
		<stop  offset="0.1213" style="stop-color:#FD7600"/>
		<stop  offset="0.221" style="stop-color:#F78001"/>
		<stop  offset="0.3127" style="stop-color:#ED9202"/>
		<stop  offset="0.3615" style="stop-color:#E59E03"/>
		<stop  offset="0.8652" style="stop-color:#E5C500"/>
		<stop  offset="0.9944" style="stop-color:#BF6F00"/>
	</linearGradient>
	<path class="st19" d="M655.24,311.88c-8.68,45.19-33.58,80.19-55.6,78.15c-22-2.02-32.8-40.31-24.12-85.5s33.58-80.19,55.6-78.15
		C653.13,228.42,663.93,266.71,655.24,311.88z"/>
	
		<linearGradient id="SVGID_25_" gradientUnits="userSpaceOnUse" x1="709.6655" y1="1031.0122" x2="876.1628" y2="1031.0122" gradientTransform="matrix(0.1403 -0.9901 0.9901 0.1403 -501.4451 924.5118)">
		<stop  offset="0" style="stop-color:#FF7300"/>
		<stop  offset="0.4526" style="stop-color:#EB9402"/>
		<stop  offset="0.5721" style="stop-color:#E59E03"/>
		<stop  offset="0.6638" style="stop-color:#E5A303"/>
		<stop  offset="0.7765" style="stop-color:#E5B201"/>
		<stop  offset="0.8728" style="stop-color:#E5C500"/>
	</linearGradient>
	<path class="st20" d="M666.91,312.96c-8.68,45.19-33.58,80.19-55.6,78.15c-22-2.02-32.8-40.31-24.12-85.5
		c8.68-45.19,33.58-80.19,55.6-78.15C664.81,229.5,675.61,267.79,666.91,312.96z"/>
	<g>
		<g>
			<g class="st9">
				<g>
					<defs>
						<polygon id="SVGID_26_" points="590.03,273.59 632.91,252.39 670.97,351.42 628.08,372.62 						"/>
					</defs>
					<clipPath id="SVGID_27_">
						<use xlink:href="#SVGID_26_"  style="overflow:visible;"/>
					</clipPath>
					<g class="st21">
						<g>
							<g>
								<g>
									<g>
										<g>
											<defs>
												<polyline id="SVGID_28_" points="620.66,353.32 590.97,273.11 640.33,271.69 670.04,351.89 620.66,353.32 												
													"/>
											</defs>
											<clipPath id="SVGID_29_">
												<use xlink:href="#SVGID_28_"  style="overflow:visible;"/>
											</clipPath>
											<g class="st22">
												<g>
													<defs>
														<polyline id="SVGID_30_" points="612.09,330.13 596.57,272.95 648.92,294.9 664.45,352.05 612.09,330.13 
																													"/>
													</defs>
													<clipPath id="SVGID_31_">
														<use xlink:href="#SVGID_30_"  style="overflow:visible;"/>
													</clipPath>
													<g class="st23">
														<g>
															<defs>
																<path id="SVGID_32_" d="M614.4,280.42l-4.11,7.17l-6.02-7.66l-3.94,6.74l6.03,7.68l-2.66,4.58l7.53,9.57l2.64-4.6
																	l2.35,3.01l-2.64,4.6l7.53,9.53l2.66-4.58l21.72,27.62l7.38-12.75c1.43-2.45,2.08-5.39,1.95-8.81
																	c-0.19-3.41-1.08-7.11-2.77-10.99c-1.66-3.9-3.94-7.69-6.82-11.36c-4.47-5.65-8.64-9.06-12.48-10.14
																	c-3.86-1.06-6.94,0.34-9.21,4.26l-3.41,5.86l-2.35-3.01l4.15-7.17L614.4,280.42 M627.64,309.75l3.4-5.83
																	c2.17-3.8,5.56-2.78,10.13,3.05c2.17,2.76,3.66,5.44,4.42,8.1c0.78,2.65,0.68,4.85-0.28,6.56l-3.54,6.08
																	L627.64,309.75"/>
															</defs>
															<clipPath id="SVGID_33_">
																<use xlink:href="#SVGID_32_"  style="overflow:visible;"/>
															</clipPath>
															<g class="st24">
																<g>
																	<defs>
																		<path id="SVGID_34_" d="M645.75,315.62c0.58,2.32,0.48,4.27-0.34,5.85C646.23,319.89,646.32,317.94,645.75,315.62
																			 M645.68,315.39l-0.09-0.35c-0.78-2.65-2.24-5.34-4.42-8.1c-2.1-2.65-3.91-4.29-5.49-4.96
																			c1.59,0.66,3.39,2.31,5.49,4.96c2.17,2.76,3.66,5.44,4.42,8.1L645.68,315.39 M653.23,314.68
																			c-0.32-0.9-0.67-1.88-1.06-2.83C652.56,312.8,652.93,313.76,653.23,314.68 M653.78,316.52l-0.09-0.31
																			L653.78,316.52"/>
																	</defs>
																	<clipPath id="SVGID_35_">
																		<use xlink:href="#SVGID_34_"  style="overflow:visible;"/>
																	</clipPath>
																	<g class="st25">
																		<g>
																			<defs>
																				<polyline id="SVGID_36_" points="633.42,299.63 652.37,307.61 658.14,328.74 639.17,320.81 633.42,299.63 
																																									"/>
																			</defs>
																			<clipPath id="SVGID_37_">
																				<use xlink:href="#SVGID_36_"  style="overflow:visible;"/>
																			</clipPath>
																			<g class="st26">
																				<g>
																					<defs>
																						<path id="SVGID_38_" d="M636.02,302.15l-0.34-0.17L636.02,302.15 M636.18,302.23l-0.12-0.07L636.18,302.23
																							 M636.31,302.29l-0.05-0.03L636.31,302.29 M641.52,307.39l-0.35-0.44L641.52,307.39 M642.93,309.43
																							c-0.42-0.68-0.89-1.35-1.41-2.04C642.03,308.06,642.49,308.77,642.93,309.43 M646.11,317.68l0.01,0.06
																							L646.11,317.68 M646.06,317.25l0,0.09L646.06,317.25 M645.99,316.8l0.01,0.15L645.99,316.8 M645.91,316.29
																							l0.05,0.34L645.91,316.29 M645.75,315.62l0.15,0.65L645.75,315.62 M645.51,314.75l0.09,0.31L645.51,314.75
																							 M645.19,313.82l-0.15-0.43c-0.29-0.67-0.61-1.39-1-2.12c-0.34-0.61-0.69-1.2-1.1-1.82
																							C643.9,310.93,644.65,312.38,645.19,313.82 M645.19,313.82l0.05,0.15L645.19,313.82 M653.18,314.56l0.05,0.12
																							L653.18,314.56"/>
																					</defs>
																					<clipPath id="SVGID_39_">
																						<use xlink:href="#SVGID_38_"  style="overflow:visible;"/>
																					</clipPath>
																					<g class="st27">
																						<g>
																							<defs>
																								<polyline id="SVGID_40_" points="632.8,299.1 649.04,298.61 656.48,318.65 640.24,319.14 632.8,299.1 
																																																	"/>
																							</defs>
																							<clipPath id="SVGID_41_">
																								<use xlink:href="#SVGID_40_"  style="overflow:visible;"/>
																							</clipPath>
																							<g class="st28">
																								<g>
																									<defs>
																										<path id="SVGID_42_" d="M641.8,307.78L641.8,307.78L641.8,307.78 M641.83,307.83L641.83,307.83
																											L641.83,307.83 M641.96,308.01C641.95,307.99,641.95,307.99,641.96,308.01
																											C641.95,307.99,641.95,307.99,641.96,308.01 M643.58,310.48c-0.17-0.29-0.34-0.57-0.51-0.86l0,0
																											C643.24,309.9,643.41,310.19,643.58,310.48L643.58,310.48 M643.81,310.84c-0.07-0.1-0.13-0.22-0.2-0.33
																											l0,0C643.68,310.62,643.76,310.73,643.81,310.84L643.81,310.84"/>
																									</defs>
																									<clipPath id="SVGID_43_">
																										<use xlink:href="#SVGID_42_"  style="overflow:visible;"/>
																									</clipPath>
																								</g>
																							</g>
																						</g>
																					</g>
																				</g>
																			</g>
																		</g>
																	</g>
																</g>
															</g>
														</g>
													</g>
												</g>
												<g>
													<defs>
														<polyline id="SVGID_44_" points="612.09,330.13 596.57,272.95 648.92,294.9 664.45,352.05 612.09,330.13 
																													"/>
													</defs>
													<clipPath id="SVGID_45_">
														<use xlink:href="#SVGID_44_"  style="overflow:visible;"/>
													</clipPath>
													<path class="st29" d="M627.64,309.75l3.35-5.82c1.2-2.07,2.76-2.7,4.66-1.92c1.59,0.66,3.39,2.31,5.49,4.96
														c0.65,0.83,1.24,1.66,1.76,2.49c0.43,0.61,0.77,1.21,1.1,1.82c0.39,0.73,0.71,1.41,1,2.12l0.17,0.41
														c0.15,0.43,0.3,0.82,0.41,1.25l0.09,0.35l0.07,0.23c0.58,2.32,0.48,4.27-0.34,5.85l-0.08,0.15l-3.54,6.08
														L627.64,309.75 M652.5,312.66c-0.1-0.27-0.2-0.55-0.28-0.75l-0.15-0.3c-1.66-3.9-3.94-7.69-6.82-11.36
														c-4.47-5.65-8.64-9.06-12.48-10.14c-3.86-1.06-6.94,0.34-9.21,4.26l-3.41,5.86l-2.35-3.01l4.15-7.17l-7.53-9.57
														l-4.18,7.16l-6.02-7.66l-3.92,6.73l0,0l0.01,0.02l6.02,7.66l-2.66,4.58l7.53,9.57l2.64-4.6l2.35,3.01l-2.64,4.6
														l7.53,9.53l2.66-4.58l21.7,27.6l0,0l7.38-12.75c1.43-2.45,2.08-5.39,1.95-8.81c-0.09-1.94-0.43-3.93-0.97-6.02
														l-0.09-0.31c-0.13-0.5-0.31-1.01-0.48-1.51l-0.05-0.12c-0.12-0.39-0.26-0.76-0.39-1.13
														C652.68,313.19,652.6,312.94,652.5,312.66"/>
												</g>
											</g>
										</g>
									</g>
								</g>
							</g>
						</g>
					</g>
				</g>
			</g>
		</g>
	</g>
</g>
<g>
	
		<linearGradient id="SVGID_46_" gradientUnits="userSpaceOnUse" x1="698.2537" y1="1064.7513" x2="864.751" y2="1064.7513" gradientTransform="matrix(0.1403 -0.9901 0.9901 0.1403 -501.4451 924.5118)">
		<stop  offset="0" style="stop-color:#FF7300"/>
		<stop  offset="0.1213" style="stop-color:#FD7600"/>
		<stop  offset="0.221" style="stop-color:#F78001"/>
		<stop  offset="0.3127" style="stop-color:#ED9202"/>
		<stop  offset="0.3615" style="stop-color:#E59E03"/>
		<stop  offset="0.8652" style="stop-color:#E5C500"/>
		<stop  offset="0.9944" style="stop-color:#BF6F00"/>
	</linearGradient>
	<path class="st30" d="M703.41,295.84c-8.68,45.19-33.58,80.19-55.6,78.15c-22-2.02-32.8-40.31-24.12-85.5s33.58-80.19,55.6-78.15
		S712.11,250.68,703.41,295.84z"/>
	
		<linearGradient id="SVGID_47_" gradientUnits="userSpaceOnUse" x1="732.3066" y1="1076.4642" x2="898.8038" y2="1076.4642" gradientTransform="matrix(0.1403 -0.9901 0.9901 0.1403 -501.4451 924.5118)">
		<stop  offset="0" style="stop-color:#FF7300"/>
		<stop  offset="0.4526" style="stop-color:#EB9402"/>
		<stop  offset="0.5721" style="stop-color:#E59E03"/>
		<stop  offset="0.6638" style="stop-color:#E5A303"/>
		<stop  offset="0.7765" style="stop-color:#E5B201"/>
		<stop  offset="0.8728" style="stop-color:#E5C500"/>
	</linearGradient>
	<path class="st31" d="M715.09,296.92c-8.68,45.19-33.58,80.19-55.6,78.15c-22-2.02-32.8-40.31-24.12-85.5
		c8.68-45.19,33.58-80.19,55.6-78.15S723.79,251.75,715.09,296.92z"/>
	<g>
		<g>
			<g class="st9">
				<g>
					<defs>
						<polygon id="SVGID_48_" points="638.21,257.55 681.09,236.35 719.14,335.38 676.26,356.58 						"/>
					</defs>
					<clipPath id="SVGID_49_">
						<use xlink:href="#SVGID_48_"  style="overflow:visible;"/>
					</clipPath>
					<g class="st32">
						<g>
							<g>
								<g>
									<g>
										<g>
											<defs>
												<polyline id="SVGID_50_" points="668.84,337.28 639.15,257.07 688.51,255.65 718.22,335.85 668.84,337.28 												
													"/>
											</defs>
											<clipPath id="SVGID_51_">
												<use xlink:href="#SVGID_50_"  style="overflow:visible;"/>
											</clipPath>
											<g class="st33">
												<g>
													<defs>
														<polyline id="SVGID_52_" points="660.27,314.1 644.74,256.91 697.1,278.86 712.63,336.01 660.27,314.1 														
															"/>
													</defs>
													<clipPath id="SVGID_53_">
														<use xlink:href="#SVGID_52_"  style="overflow:visible;"/>
													</clipPath>
													<g class="st34">
														<g>
															<defs>
																<path id="SVGID_54_" d="M662.58,264.38l-4.11,7.17l-6.02-7.66l-3.94,6.74l6.03,7.68l-2.66,4.58l7.53,9.57l2.64-4.6
																	l2.35,3.01l-2.64,4.6l7.53,9.53l2.66-4.58l21.72,27.62l7.38-12.75c1.43-2.45,2.08-5.39,1.95-8.81
																	c-0.19-3.41-1.08-7.11-2.77-10.99c-1.66-3.9-3.94-7.69-6.82-11.36c-4.47-5.65-8.64-9.06-12.48-10.14
																	c-3.86-1.06-6.94,0.34-9.21,4.26l-3.41,5.86l-2.35-3.01l4.15-7.17L662.58,264.38 M675.82,293.71l3.4-5.83
																	c2.17-3.8,5.56-2.78,10.13,3.05c2.17,2.76,3.66,5.44,4.42,8.1c0.78,2.65,0.68,4.85-0.28,6.56l-3.54,6.08
																	L675.82,293.71"/>
															</defs>
															<clipPath id="SVGID_55_">
																<use xlink:href="#SVGID_54_"  style="overflow:visible;"/>
															</clipPath>
															<g class="st35">
																<g>
																	<defs>
																		<path id="SVGID_56_" d="M693.93,299.58c0.58,2.32,0.48,4.27-0.34,5.85C694.41,303.85,694.5,301.9,693.93,299.58
																			 M693.85,299.35l-0.09-0.35c-0.78-2.65-2.24-5.34-4.42-8.1c-2.1-2.65-3.91-4.29-5.49-4.96
																			c1.59,0.66,3.39,2.31,5.49,4.96c2.17,2.76,3.66,5.44,4.42,8.1L693.85,299.35 M701.41,298.64
																			c-0.32-0.9-0.67-1.88-1.06-2.83C700.74,296.76,701.11,297.73,701.41,298.64 M701.96,300.48l-0.09-0.31
																			L701.96,300.48"/>
																	</defs>
																	<clipPath id="SVGID_57_">
																		<use xlink:href="#SVGID_56_"  style="overflow:visible;"/>
																	</clipPath>
																	<g class="st36">
																		<g>
																			<defs>
																				<polyline id="SVGID_58_" points="681.6,283.59 700.55,291.57 706.32,312.7 687.35,304.77 681.6,283.59 
																																									"/>
																			</defs>
																			<clipPath id="SVGID_59_">
																				<use xlink:href="#SVGID_58_"  style="overflow:visible;"/>
																			</clipPath>
																			<g class="st37">
																				<g>
																					<defs>
																						<path id="SVGID_60_" d="M684.2,286.11l-0.34-0.17L684.2,286.11 M684.35,286.19l-0.12-0.07L684.35,286.19
																							 M684.49,286.25l-0.05-0.03L684.49,286.25 M689.7,291.35l-0.35-0.44L689.7,291.35 M691.11,293.39
																							c-0.42-0.68-0.89-1.35-1.41-2.04C690.21,292.02,690.67,292.73,691.11,293.39 M694.29,301.65l0.01,0.06
																							L694.29,301.65 M694.23,301.21l0,0.09L694.23,301.21 M694.16,300.76l0.01,0.15L694.16,300.76 M694.09,300.25
																							l0.05,0.34L694.09,300.25 M693.93,299.58l0.15,0.65L693.93,299.58 M693.69,298.72l0.09,0.31L693.69,298.72
																							 M693.37,297.78l-0.15-0.43c-0.29-0.67-0.61-1.39-1-2.12c-0.34-0.61-0.69-1.2-1.1-1.82
																							C692.08,294.9,692.83,296.35,693.37,297.78 M693.37,297.78l0.05,0.15L693.37,297.78 M701.36,298.52l0.05,0.12
																							L701.36,298.52"/>
																					</defs>
																					<clipPath id="SVGID_61_">
																						<use xlink:href="#SVGID_60_"  style="overflow:visible;"/>
																					</clipPath>
																					<g class="st38">
																						<g>
																							<defs>
																								<polyline id="SVGID_62_" points="680.98,283.06 697.22,282.57 704.66,302.61 688.42,303.1 680.98,283.06 
																																																	"/>
																							</defs>
																							<clipPath id="SVGID_63_">
																								<use xlink:href="#SVGID_62_"  style="overflow:visible;"/>
																							</clipPath>
																							<g class="st39">
																								<g>
																									<defs>
																										<path id="SVGID_64_" d="M689.98,291.75L689.98,291.75L689.98,291.75 M690.01,291.79L690.01,291.79
																											L690.01,291.79 M690.14,291.98C690.13,291.96,690.13,291.96,690.14,291.98
																											C690.13,291.96,690.13,291.96,690.14,291.98 M691.76,294.44c-0.17-0.29-0.34-0.57-0.51-0.86l0,0
																											C691.41,293.86,691.59,294.15,691.76,294.44L691.76,294.44 M691.99,294.81c-0.07-0.1-0.13-0.22-0.2-0.33
																											l0,0C691.86,294.58,691.93,294.69,691.99,294.81L691.99,294.81"/>
																									</defs>
																									<clipPath id="SVGID_65_">
																										<use xlink:href="#SVGID_64_"  style="overflow:visible;"/>
																									</clipPath>
																								</g>
																							</g>
																						</g>
																					</g>
																				</g>
																			</g>
																		</g>
																	</g>
																</g>
															</g>
														</g>
													</g>
												</g>
												<g>
													<defs>
														<polyline id="SVGID_66_" points="660.27,314.1 644.74,256.91 697.1,278.86 712.63,336.01 660.27,314.1 														
															"/>
													</defs>
													<clipPath id="SVGID_67_">
														<use xlink:href="#SVGID_66_"  style="overflow:visible;"/>
													</clipPath>
													<path class="st40" d="M675.82,293.71l3.35-5.82c1.2-2.07,2.76-2.7,4.66-1.92c1.59,0.66,3.39,2.31,5.49,4.96
														c0.65,0.83,1.24,1.66,1.76,2.49c0.43,0.61,0.77,1.21,1.1,1.82c0.39,0.73,0.71,1.41,1,2.12l0.17,0.41
														c0.15,0.43,0.3,0.82,0.41,1.25l0.09,0.35l0.07,0.23c0.58,2.32,0.48,4.27-0.34,5.85l-0.08,0.15l-3.54,6.08
														L675.82,293.71 M700.67,296.62c-0.1-0.27-0.2-0.55-0.28-0.75l-0.15-0.3c-1.66-3.9-3.94-7.69-6.82-11.36
														c-4.47-5.65-8.64-9.06-12.48-10.14c-3.86-1.06-6.94,0.34-9.21,4.26l-3.41,5.86l-2.35-3.01l4.15-7.17l-7.53-9.57
														l-4.18,7.16l-6.02-7.66l-3.92,6.73l0,0l0.01,0.02l6.02,7.66l-2.66,4.58l7.53,9.57l2.64-4.6l2.35,3.01l-2.64,4.6
														l7.53,9.53l2.66-4.58l21.7,27.6l0,0l7.38-12.75c1.43-2.45,2.08-5.39,1.95-8.81c-0.09-1.94-0.43-3.93-0.97-6.02
														l-0.09-0.31c-0.13-0.5-0.31-1.01-0.48-1.51l-0.05-0.12c-0.12-0.39-0.26-0.76-0.39-1.13
														C700.86,297.15,700.77,296.9,700.67,296.62"/>
												</g>
											</g>
										</g>
									</g>
								</g>
							</g>
						</g>
					</g>
				</g>
			</g>
		</g>
	</g>
</g>
<polygon class="st1" points="199.99,360.11 700.41,360.12 721.91,394.95 179.73,401.05 "/>
<g>
	<path class="st41" d="M783.09,140l-13.77,21.03l-14.39-9.42l-10.14,15.5l-21.03-13.77l10.14-15.5l-14.39-9.42l13.77-21.03
		l14.39,9.42l10.14-15.5l21.03,13.77l-10.14,15.5L783.09,140z"/>
</g>
<g>
	<path class="st41" d="M393.34,33.53l-0.96,22.59l-15.46-0.66l-0.71,16.65l-22.59-0.96l0.71-16.65l-15.46-0.66l0.96-22.59
		l15.46,0.66L356,15.27l22.59,0.96l-0.71,16.65L393.34,33.53z"/>
</g>
<g>
	<path class="st41" d="M92.94,292.8l-9.25,20.63l-14.12-6.33l-6.82,15.2l-20.63-9.25l6.82-15.2l-14.12-6.33l9.25-20.63l14.12,6.33
		l6.82-15.2l20.63,9.25l-6.82,15.2L92.94,292.8z"/>
</g>
</svg>
