<?xml version="1.0" encoding="utf-8"?>
<!-- Generator: Adobe Illustrator 24.1.2, SVG Export Plug-In . SVG Version: 6.00 Build 0)  -->
<svg version="1.1" id="Слой_1" xmlns="http://www.w3.org/2000/svg" xmlns:xlink="http://www.w3.org/1999/xlink" x="0px" y="0px"
	 viewBox="0 0 884 884" style="enable-background:new 0 0 884 884;" xml:space="preserve">
<style type="text/css">
	.st0{fill:url(#SVGID_1_);}
	.st1{opacity:0.72;fill:#A65B00;enable-background:new    ;}
	.st2{enable-background:new    ;}
	.st3{clip-path:url(#SVGID_3_);}
	.st4{fill:#007439;}
	.st5{clip-path:url(#SVGID_5_);}
	.st6{clip-path:url(#SVGID_7_);}
	.st7{clip-path:url(#SVGID_9_);}
	.st8{clip-path:url(#SVGID_11_);}
	.st9{clip-path:url(#SVGID_13_);}
	.st10{clip-path:url(#SVGID_15_);}
	.st11{clip-path:url(#SVGID_17_);}
	.st12{clip-path:url(#SVGID_19_);}
	.st13{clip-path:url(#SVGID_21_);}
	.st14{clip-path:url(#SVGID_23_);}
	.st15{clip-path:url(#SVGID_25_);}
	.st16{clip-path:url(#SVGID_27_);}
	.st17{clip-path:url(#SVGID_29_);}
	.st18{clip-path:url(#SVGID_31_);}
	.st19{clip-path:url(#SVGID_33_);}
	.st20{clip-path:url(#SVGID_35_);}
	.st21{clip-path:url(#SVGID_37_);}
	.st22{clip-path:url(#SVGID_39_);}
	.st23{clip-path:url(#SVGID_41_);}
	.st24{clip-path:url(#SVGID_43_);}
	.st25{fill:#00B358;}
	.st26{fill:#007439;stroke:#000000;stroke-miterlimit:10;}
	.st27{fill:#00B358;stroke:#000000;stroke-miterlimit:10;}
</style>
<g id="Слой_2_1_">
	
		<linearGradient id="SVGID_1_" gradientUnits="userSpaceOnUse" x1="52.3412" y1="296.6561" x2="864.9611" y2="296.6561" gradientTransform="matrix(1 0 0 -1 0 884)">
		<stop  offset="0" style="stop-color:#FF8C00"/>
		<stop  offset="0.1316" style="stop-color:#FF9009"/>
		<stop  offset="0.3495" style="stop-color:#FF9C23"/>
		<stop  offset="0.5521" style="stop-color:#FFA940"/>
		<stop  offset="0.8652" style="stop-color:#FFC073"/>
		<stop  offset="0.9944" style="stop-color:#FF8C00"/>
	</linearGradient>
	<ellipse class="st0" cx="458.65" cy="587.34" rx="406.31" ry="196.08"/>
	<ellipse class="st1" cx="244.18" cy="600.29" rx="149.1" ry="41.3"/>
	<ellipse class="st1" cx="666.39" cy="581.69" rx="194.72" ry="31.28"/>
</g>
<g id="Слой_1_1_">
	<g>
		<g>
			<g class="st2">
				<g>
					<defs>
						<polygon id="SVGID_2_" points="329.98,481.39 679.96,278.01 1002.8,464.41 652.83,667.79 						"/>
					</defs>
					<clipPath id="SVGID_3_">
						<use xlink:href="#SVGID_2_"  style="overflow:visible;"/>
					</clipPath>
					<g class="st3">
						<g>
							<g>
								<g>
									<path class="st4" d="M631.7,375.97c-14.49-8.36-34.42-13.84-56.58-14.4c-46.51-1.19-84.81,19.18-86.62,44.63
										c-0.95,13.51,8.1,25.85,23.53,34.75c14.31,8.26,34.1,13.57,56.49,14.15c45.99,1.18,85.28-18.58,87.12-44.63
										C656.58,397.28,647.27,384.96,631.7,375.97 M820.76,504.93c-14.34-8.28-34.06-13.69-56.1-14.26
										c-46.51-1.19-84.81,19.18-86.62,44.63c-0.94,13.32,8.06,25.55,23.42,34.42c14.32,8.27,34.16,13.61,56.62,14.19
										c45.99,1.18,84.77-18.59,86.59-44.34C845.61,526.31,836.36,513.91,820.76,504.93 M737.47,551.01
										c-6.44-3.72-10.22-8.95-9.81-14.74c0.75-10.65,16.21-19.16,35.11-18.68c8.97,0.23,16.99,2.43,22.86,5.82
										c6.51,3.77,10.4,8.99,10,14.58c-0.77,10.95-16.71,19.15-35.62,18.66C751.09,556.45,743.22,554.34,737.47,551.01
										 M547.9,422.21c-6.44-3.72-10.22-8.95-9.81-14.74c0.75-10.65,16.21-19.16,35.11-18.68c8.97,0.23,16.99,2.43,22.86,5.82
										c6.51,3.77,10.4,8.98,9.99,14.58c-0.77,10.95-16.71,19.15-35.62,18.66C561.52,427.65,553.65,425.53,547.9,422.21
										 M842.69,371.97l-59.81-1.54L489.49,573.48l59.81,1.53L842.69,371.97"/>
								</g>
							</g>
						</g>
					</g>
				</g>
			</g>
		</g>
	</g>
	<g>
		<g>
			<g class="st2">
				<g>
					<defs>
						<polygon id="SVGID_4_" points="329.98,482.98 679.96,279.61 1002.8,466 652.83,669.38 						"/>
					</defs>
					<clipPath id="SVGID_5_">
						<use xlink:href="#SVGID_4_"  style="overflow:visible;"/>
					</clipPath>
					<g class="st5">
						<g>
							<g>
								<g>
									<path class="st4" d="M631.7,377.56c-14.49-8.36-34.42-13.84-56.58-14.4c-46.51-1.19-84.83,19.18-86.62,44.63
										c-0.96,13.51,8.09,25.85,23.51,34.75c14.31,8.27,34.1,13.57,56.49,14.15c45.99,1.18,85.28-18.58,87.11-44.62
										C656.56,398.88,647.27,386.55,631.7,377.56 M820.76,506.51c-14.34-8.28-34.06-13.69-56.1-14.26
										c-46.51-1.19-84.83,19.18-86.62,44.63c-0.94,13.32,8.06,25.56,23.42,34.42c14.32,8.27,34.16,13.61,56.62,14.19
										c45.99,1.18,84.77-18.59,86.59-44.34C845.61,527.9,836.36,515.52,820.76,506.51 M737.45,552.6
										c-6.44-3.72-10.22-8.95-9.81-14.73c0.76-10.66,16.21-19.16,35.13-18.68c8.97,0.23,16.99,2.44,22.86,5.84
										c6.51,3.77,10.4,8.98,10,14.58c-0.77,10.95-16.71,19.15-35.62,18.66C751.09,558.04,743.21,555.92,737.45,552.6
										 M547.9,423.81c-6.44-3.72-10.22-8.95-9.81-14.74c0.75-10.65,16.21-19.16,35.11-18.68c8.97,0.23,16.99,2.43,22.86,5.82
										c6.51,3.77,10.4,8.99,10,14.58c-0.77,10.95-16.71,19.15-35.62,18.66C561.52,429.23,553.65,427.13,547.9,423.81
										 M842.69,373.57l-59.81-1.53L489.49,575.07l59.8,1.53L842.69,373.57"/>
								</g>
							</g>
						</g>
					</g>
				</g>
			</g>
		</g>
	</g>
	<g>
		<g>
			<g class="st2">
				<g>
					<defs>
						<polygon id="SVGID_6_" points="331.58,482.99 681.55,279.61 1004.4,466 654.43,669.38 						"/>
					</defs>
					<clipPath id="SVGID_7_">
						<use xlink:href="#SVGID_6_"  style="overflow:visible;"/>
					</clipPath>
					<g class="st6">
						<g>
							<g>
								<g>
									<path class="st4" d="M633.3,377.56c-14.49-8.36-34.42-13.84-56.58-14.4c-46.51-1.19-84.81,19.18-86.62,44.63
										c-0.95,13.51,8.1,25.85,23.53,34.75c14.31,8.27,34.1,13.57,56.49,14.15c45.99,1.18,85.28-18.58,87.12-44.62
										C658.16,398.88,648.87,386.55,633.3,377.56 M822.36,506.51c-14.34-8.28-34.06-13.69-56.1-14.26
										c-46.51-1.19-84.81,19.18-86.62,44.63c-0.94,13.32,8.06,25.56,23.42,34.42c14.32,8.27,34.16,13.61,56.62,14.19
										c45.99,1.18,84.77-18.59,86.59-44.34C847.2,527.9,837.95,515.52,822.36,506.51 M739.06,552.6
										c-6.44-3.72-10.22-8.95-9.81-14.73c0.76-10.66,16.21-19.16,35.11-18.68c8.97,0.23,16.99,2.44,22.86,5.84
										c6.51,3.77,10.4,8.98,10,14.58c-0.77,10.95-16.71,19.15-35.62,18.66C752.68,558.04,744.81,555.92,739.06,552.6
										 M549.49,423.81c-6.44-3.72-10.22-8.95-9.81-14.74c0.75-10.65,16.2-19.16,35.1-18.68c8.97,0.23,16.99,2.43,22.86,5.82
										c6.51,3.77,10.4,8.99,10,14.58c-0.77,10.95-16.71,19.15-35.62,18.66C563.11,429.23,555.24,427.13,549.49,423.81
										 M844.29,373.57l-59.81-1.53L491.09,575.07l59.8,1.53L844.29,373.57"/>
								</g>
							</g>
						</g>
					</g>
				</g>
			</g>
		</g>
	</g>
	<g>
		<g>
			<g class="st2">
				<g>
					<defs>
						<polygon id="SVGID_8_" points="331.58,484.58 681.55,281.21 1004.39,467.6 654.43,670.98 						"/>
					</defs>
					<clipPath id="SVGID_9_">
						<use xlink:href="#SVGID_8_"  style="overflow:visible;"/>
					</clipPath>
					<g class="st7">
						<g>
							<g>
								<g>
									<path class="st4" d="M633.29,379.15c-14.49-8.36-34.4-13.84-56.57-14.4c-46.51-1.19-84.81,19.18-86.62,44.63
										c-0.95,13.51,8.1,25.85,23.53,34.75c14.31,8.27,34.1,13.57,56.49,14.14c45.99,1.18,85.27-18.57,87.12-44.62
										C658.16,400.49,648.86,388.15,633.29,379.15 M822.35,508.1c-14.34-8.28-34.04-13.69-56.09-14.26
										c-46.51-1.19-84.81,19.18-86.62,44.63c-0.94,13.33,8.06,25.56,23.42,34.43c14.32,8.27,34.16,13.61,56.61,14.19
										c45.99,1.18,84.77-18.59,86.59-44.34C847.2,529.5,837.95,517.1,822.35,508.1 M739.06,554.2
										c-6.44-3.72-10.22-8.95-9.81-14.74c0.75-10.65,16.2-19.16,35.1-18.68c8.97,0.23,16.99,2.43,22.88,5.82
										c6.51,3.77,10.39,8.98,10,14.58c-0.77,10.95-16.71,19.15-35.63,18.66C752.68,559.64,744.81,557.52,739.06,554.2
										 M549.49,425.39c-6.44-3.72-10.22-8.95-9.81-14.73c0.75-10.65,16.2-19.16,35.1-18.68c8.97,0.23,16.99,2.43,22.88,5.82
										c6.51,3.77,10.39,8.98,10,14.58c-0.77,10.95-16.71,19.15-35.62,18.66C563.11,430.83,555.24,428.72,549.49,425.39
										 M844.28,375.17l-59.8-1.53L491.09,576.67l59.8,1.53L844.28,375.17"/>
								</g>
							</g>
						</g>
					</g>
				</g>
			</g>
		</g>
	</g>
	<g>
		<g>
			<g class="st2">
				<g>
					<defs>
						<polygon id="SVGID_10_" points="333.18,484.58 683.13,281.21 1005.99,467.6 656.03,670.98 						"/>
					</defs>
					<clipPath id="SVGID_11_">
						<use xlink:href="#SVGID_10_"  style="overflow:visible;"/>
					</clipPath>
					<g class="st8">
						<g>
							<g>
								<g>
									<path class="st4" d="M634.89,379.15c-14.49-8.36-34.4-13.83-56.57-14.4c-46.51-1.19-84.83,19.18-86.62,44.63
										c-0.96,13.51,8.1,25.85,23.51,34.75c14.31,8.26,34.1,13.57,56.49,14.14c46,1.18,85.27-18.57,87.12-44.62
										C659.75,400.49,650.46,388.14,634.89,379.15 M823.95,508.1c-14.34-8.28-34.04-13.68-56.09-14.25
										c-46.51-1.19-84.83,19.18-86.62,44.63c-0.94,13.33,8.06,25.56,23.43,34.43c14.32,8.27,34.16,13.61,56.59,14.19
										c46,1.18,84.78-18.59,86.59-44.34C848.79,529.5,839.54,517.1,823.95,508.1 M740.66,554.2c-6.44-3.72-10.22-8.95-9.81-14.74
										c0.75-10.65,16.21-19.16,35.11-18.68c8.97,0.23,16.99,2.43,22.88,5.82c6.51,3.77,10.39,8.98,10,14.58
										c-0.77,10.95-16.73,19.15-35.63,18.66C754.28,559.63,746.4,557.52,740.66,554.2 M551.08,425.39
										c-6.44-3.72-10.22-8.95-9.81-14.73c0.75-10.65,16.21-19.16,35.11-18.68c8.97,0.23,16.99,2.43,22.88,5.82
										c6.51,3.77,10.39,8.98,10,14.58c-0.77,10.95-16.71,19.15-35.63,18.65C564.71,430.83,556.83,428.72,551.08,425.39
										 M845.88,375.15l-59.8-1.53L492.69,576.67l59.8,1.53L845.88,375.15"/>
								</g>
							</g>
						</g>
					</g>
				</g>
			</g>
		</g>
	</g>
	<g>
		<g>
			<g class="st2">
				<g>
					<defs>
						<polygon id="SVGID_12_" points="333.18,486.16 683.13,282.8 1005.99,469.2 656.03,672.57 						"/>
					</defs>
					<clipPath id="SVGID_13_">
						<use xlink:href="#SVGID_12_"  style="overflow:visible;"/>
					</clipPath>
					<g class="st9">
						<g>
							<g>
								<g>
									<path class="st4" d="M634.89,380.75c-14.49-8.36-34.42-13.84-56.58-14.4c-46.51-1.19-84.81,19.18-86.61,44.63
										c-0.96,13.51,8.1,25.85,23.53,34.75c14.31,8.26,34.1,13.57,56.47,14.14c46,1.18,85.28-18.58,87.12-44.62
										C659.75,402.07,650.46,389.74,634.89,380.75 M823.95,509.7c-14.34-8.28-34.06-13.69-56.09-14.25
										c-46.51-1.19-84.81,19.18-86.62,44.63c-0.94,13.33,8.06,25.56,23.43,34.43c14.32,8.27,34.16,13.61,56.59,14.19
										c46,1.18,84.78-18.59,86.59-44.34C848.79,531.09,839.54,518.7,823.95,509.7 M740.66,555.79
										c-6.44-3.72-10.22-8.95-9.81-14.74c0.75-10.65,16.21-19.16,35.11-18.68c8.97,0.23,16.99,2.43,22.86,5.82
										c6.51,3.77,10.4,8.99,10,14.58c-0.77,10.95-16.71,19.15-35.63,18.65C754.27,561.23,746.4,559.11,740.66,555.79 M551.09,427
										c-6.44-3.72-10.22-8.95-9.81-14.74c0.75-10.65,16.21-19.16,35.11-18.68c8.97,0.23,16.99,2.43,22.86,5.82
										c6.51,3.77,10.4,8.98,9.99,14.58c-0.77,10.95-16.71,19.15-35.63,18.65C564.7,432.42,556.83,430.32,551.09,427
										 M845.88,376.75l-59.8-1.53L492.69,578.26l59.8,1.53L845.88,376.75"/>
								</g>
							</g>
						</g>
					</g>
				</g>
			</g>
		</g>
	</g>
	<g>
		<g>
			<g class="st2">
				<g>
					<defs>
						<polygon id="SVGID_14_" points="334.78,486.16 684.74,282.8 1007.59,469.2 657.62,672.57 						"/>
					</defs>
					<clipPath id="SVGID_15_">
						<use xlink:href="#SVGID_14_"  style="overflow:visible;"/>
					</clipPath>
					<g class="st10">
						<g>
							<g>
								<g>
									<path class="st4" d="M636.49,380.75c-14.49-8.36-34.42-13.84-56.58-14.4c-46.51-1.19-84.81,19.18-86.61,44.63
										c-0.96,13.51,8.1,25.85,23.53,34.75c14.31,8.26,34.1,13.57,56.49,14.15c45.99,1.18,85.28-18.58,87.12-44.63
										C661.35,402.07,652.06,389.74,636.49,380.75 M825.54,509.7c-14.34-8.28-34.06-13.69-56.1-14.26
										c-46.51-1.19-84.81,19.18-86.61,44.63c-0.94,13.32,8.06,25.56,23.42,34.42c14.32,8.27,34.16,13.61,56.59,14.18
										c46,1.18,84.78-18.59,86.59-44.34C850.39,531.09,841.14,518.7,825.54,509.7 M742.24,555.79
										c-6.44-3.72-10.22-8.95-9.81-14.74c0.75-10.65,16.21-19.16,35.11-18.68c8.97,0.23,16.99,2.43,22.86,5.82
										c6.51,3.77,10.4,8.99,10,14.58c-0.77,10.95-16.71,19.15-35.63,18.65C755.87,561.23,748,559.11,742.24,555.79 M552.68,427
										c-6.44-3.72-10.22-8.95-9.81-14.74c0.75-10.65,16.21-19.16,35.11-18.68c8.97,0.23,16.99,2.43,22.86,5.82
										c6.51,3.77,10.4,8.98,9.99,14.58c-0.77,10.95-16.71,19.15-35.62,18.66C566.3,432.43,558.43,430.32,552.68,427
										 M847.47,376.75l-59.8-1.53L494.28,578.26l59.81,1.54L847.47,376.75"/>
								</g>
							</g>
						</g>
					</g>
				</g>
			</g>
		</g>
	</g>
	<g>
		<g>
			<g class="st2">
				<g>
					<defs>
						<polygon id="SVGID_16_" points="334.77,487.77 684.74,284.4 1007.59,470.79 657.62,674.17 						"/>
					</defs>
					<clipPath id="SVGID_17_">
						<use xlink:href="#SVGID_16_"  style="overflow:visible;"/>
					</clipPath>
					<g class="st11">
						<g>
							<g>
								<g>
									<path class="st4" d="M636.49,382.35c-14.49-8.36-34.42-13.84-56.58-14.4c-46.51-1.19-84.83,19.18-86.62,44.63
										c-0.96,13.51,8.09,25.85,23.51,34.75c14.31,8.27,34.1,13.57,56.49,14.15c45.99,1.18,85.28-18.58,87.12-44.63
										C661.35,403.67,652.06,391.34,636.49,382.35 M825.55,511.3c-14.34-8.28-34.06-13.69-56.1-14.26
										c-46.51-1.19-84.83,19.18-86.62,44.63c-0.94,13.32,8.06,25.55,23.42,34.42c14.32,8.27,34.16,13.61,56.61,14.19
										c46,1.18,84.78-18.59,86.59-44.34C850.39,532.69,841.14,520.3,825.55,511.3 M742.24,557.39
										c-6.44-3.72-10.22-8.95-9.81-14.74c0.75-10.65,16.21-19.16,35.11-18.68c8.97,0.23,16.99,2.43,22.86,5.82
										c6.51,3.77,10.4,8.99,10,14.58c-0.77,10.95-16.71,19.15-35.63,18.65C755.87,562.82,748,560.71,742.24,557.39
										 M552.69,428.58c-6.44-3.72-10.22-8.95-9.81-14.74c0.75-10.65,16.21-19.16,35.11-18.68c8.97,0.23,16.99,2.43,22.86,5.82
										c6.51,3.77,10.4,8.99,10,14.58c-0.77,10.95-16.71,19.15-35.62,18.66C566.31,434.02,558.44,431.91,552.69,428.58
										 M847.48,378.34l-59.81-1.53L494.28,579.86l59.81,1.54L847.48,378.34"/>
								</g>
							</g>
						</g>
					</g>
				</g>
			</g>
		</g>
	</g>
	<g>
		<g>
			<g class="st2">
				<g>
					<defs>
						<polygon id="SVGID_18_" points="336.37,487.77 686.34,284.4 1009.18,470.79 659.21,674.17 						"/>
					</defs>
					<clipPath id="SVGID_19_">
						<use xlink:href="#SVGID_18_"  style="overflow:visible;"/>
					</clipPath>
					<g class="st12">
						<g>
							<g>
								<g>
									<path class="st4" d="M638.09,382.35c-14.49-8.36-34.42-13.84-56.58-14.4c-46.51-1.19-84.81,19.18-86.62,44.63
										c-0.95,13.51,8.1,25.85,23.53,34.75c14.31,8.26,34.1,13.57,56.49,14.15c45.99,1.18,85.28-18.58,87.12-44.62
										C662.95,403.67,653.66,391.34,638.09,382.35 M827.14,511.3c-14.34-8.28-34.06-13.69-56.1-14.26
										c-46.51-1.19-84.83,19.18-86.62,44.63c-0.94,13.32,8.06,25.55,23.42,34.42c14.32,8.27,34.16,13.61,56.62,14.19
										c45.99,1.18,84.77-18.59,86.59-44.34C851.99,532.69,842.74,520.3,827.14,511.3 M743.84,557.39
										c-6.44-3.72-10.22-8.95-9.81-14.74c0.75-10.65,16.2-19.16,35.1-18.68c8.97,0.23,16.99,2.43,22.86,5.82
										c6.51,3.77,10.4,8.99,10,14.58c-0.77,10.95-16.71,19.15-35.62,18.66C757.47,562.83,749.6,560.71,743.84,557.39
										 M554.28,428.58c-6.44-3.72-10.22-8.95-9.81-14.74c0.75-10.65,16.2-19.16,35.1-18.68c8.97,0.23,16.99,2.43,22.86,5.82
										c6.51,3.77,10.4,8.99,10,14.58c-0.77,10.95-16.71,19.15-35.62,18.66C567.9,434.02,560.03,431.91,554.28,428.58
										 M849.08,378.34l-59.81-1.53L495.88,579.86l59.8,1.53L849.08,378.34"/>
								</g>
							</g>
						</g>
					</g>
				</g>
			</g>
		</g>
	</g>
	<g>
		<g>
			<g class="st2">
				<g>
					<defs>
						<polygon id="SVGID_20_" points="336.37,489.37 686.34,286 1009.18,472.39 659.22,675.76 						"/>
					</defs>
					<clipPath id="SVGID_21_">
						<use xlink:href="#SVGID_20_"  style="overflow:visible;"/>
					</clipPath>
					<g class="st13">
						<g>
							<g>
								<g>
									<path class="st4" d="M638.08,383.94c-14.49-8.36-34.4-13.84-56.57-14.4c-46.51-1.19-84.81,19.18-86.62,44.63
										c-0.95,13.51,8.1,25.85,23.53,34.75c14.31,8.26,34.1,13.57,56.49,14.15c45.99,1.18,85.27-18.57,87.12-44.62
										C662.95,405.26,653.65,392.93,638.08,383.94 M827.14,512.89c-14.34-8.28-34.04-13.69-56.09-14.26
										c-46.51-1.19-84.83,19.18-86.62,44.63c-0.94,13.33,8.06,25.56,23.42,34.43c14.32,8.27,34.16,13.61,56.61,14.19
										c46,1.17,84.77-18.59,86.59-44.34C851.99,534.29,842.73,521.89,827.14,512.89 M743.84,558.98
										c-6.44-3.72-10.22-8.95-9.81-14.73c0.75-10.65,16.2-19.16,35.1-18.68c8.97,0.23,16.99,2.43,22.88,5.82
										c6.51,3.77,10.39,8.98,10,14.58c-0.77,10.95-16.71,19.15-35.62,18.66C757.47,564.42,749.6,562.3,743.84,558.98
										 M554.28,430.18c-6.44-3.72-10.22-8.95-9.81-14.73c0.76-10.66,16.21-19.16,35.11-18.68c8.97,0.23,16.99,2.43,22.86,5.82
										c6.51,3.77,10.4,8.99,10,14.58c-0.77,10.95-16.71,19.15-35.62,18.66C567.9,435.62,560.03,433.51,554.28,430.18
										 M849.07,379.94l-59.8-1.53L495.88,581.46l59.8,1.53L849.07,379.94"/>
								</g>
							</g>
						</g>
					</g>
				</g>
			</g>
		</g>
	</g>
	<g>
		<g>
			<g class="st2">
				<g>
					<defs>
						<polygon id="SVGID_22_" points="337.97,489.37 687.92,286 1010.78,472.39 660.81,675.76 						"/>
					</defs>
					<clipPath id="SVGID_23_">
						<use xlink:href="#SVGID_22_"  style="overflow:visible;"/>
					</clipPath>
					<g class="st14">
						<g>
							<g>
								<g>
									<path class="st4" d="M639.68,383.94c-14.49-8.36-34.4-13.83-56.57-14.4c-46.51-1.19-84.83,19.18-86.62,44.63
										c-0.96,13.51,8.09,25.85,23.51,34.75c14.31,8.26,34.1,13.57,56.49,14.15c46,1.18,85.27-18.57,87.12-44.62
										C664.54,405.26,655.25,392.93,639.68,383.94 M828.73,512.89c-14.34-8.28-34.04-13.69-56.09-14.26
										c-46.51-1.19-84.81,19.18-86.62,44.63c-0.94,13.33,8.06,25.56,23.43,34.43c14.32,8.27,34.16,13.61,56.59,14.19
										c46,1.18,84.77-18.59,86.59-44.34C853.58,534.29,844.33,521.89,828.73,512.89 M745.43,558.98
										c-6.44-3.72-10.22-8.95-9.81-14.73c0.75-10.65,16.2-19.16,35.11-18.68c8.97,0.23,16.99,2.43,22.88,5.82
										c6.51,3.75,10.39,8.98,10,14.58c-0.78,10.95-16.71,19.15-35.63,18.65C759.07,564.42,751.19,562.3,745.43,558.98
										 M555.87,430.18c-6.44-3.72-10.22-8.95-9.81-14.73c0.76-10.66,16.21-19.16,35.13-18.68c8.97,0.23,16.99,2.43,22.86,5.82
										c6.51,3.77,10.4,8.99,10,14.58c-0.77,10.95-16.71,19.15-35.63,18.65C569.5,435.61,561.62,433.51,555.87,430.18
										 M850.67,379.94l-59.8-1.53L497.47,581.45l59.8,1.53L850.67,379.94"/>
								</g>
							</g>
						</g>
					</g>
				</g>
			</g>
		</g>
	</g>
	<g>
		<g>
			<g class="st2">
				<g>
					<defs>
						<polygon id="SVGID_24_" points="337.97,490.95 687.92,287.59 1010.78,473.97 660.81,677.36 						"/>
					</defs>
					<clipPath id="SVGID_25_">
						<use xlink:href="#SVGID_24_"  style="overflow:visible;"/>
					</clipPath>
					<g class="st15">
						<g>
							<g>
								<g>
									<path class="st4" d="M639.68,385.54c-14.49-8.36-34.42-13.84-56.58-14.39c-46.51-1.19-84.81,19.18-86.61,44.63
										c-0.96,13.51,8.1,25.85,23.53,34.75c14.31,8.26,34.1,13.57,56.47,14.14c46,1.18,85.28-18.58,87.12-44.62
										C664.54,406.86,655.25,394.53,639.68,385.54 M828.74,514.49c-14.34-8.28-34.06-13.69-56.1-14.25
										c-46.51-1.19-84.8,19.18-86.61,44.63c-0.94,13.33,8.06,25.56,23.43,34.43c14.32,8.27,34.16,13.61,56.59,14.19
										c46,1.18,84.77-18.59,86.59-44.34C853.58,535.88,844.33,523.48,828.74,514.49 M745.43,560.58
										c-6.44-3.72-10.22-8.95-9.81-14.74c0.75-10.65,16.2-19.16,35.11-18.68c8.97,0.23,16.99,2.43,22.86,5.82
										c6.51,3.75,10.39,8.98,10,14.58c-0.78,10.95-16.71,19.15-35.63,18.65C759.06,566.02,751.19,563.9,745.43,560.58
										 M555.87,431.77c-6.44-3.72-10.22-8.95-9.81-14.74c0.75-10.65,16.2-19.16,35.11-18.68c8.97,0.23,16.99,2.43,22.88,5.82
										c6.51,3.77,10.39,8.98,10,14.58c-0.77,10.95-16.73,19.15-35.63,18.65C569.49,437.21,561.62,435.09,555.87,431.77
										 M850.67,381.54l-59.8-1.53L497.47,583.05l59.8,1.53L850.67,381.54"/>
								</g>
							</g>
						</g>
					</g>
				</g>
			</g>
		</g>
	</g>
	<g>
		<g>
			<g class="st2">
				<g>
					<defs>
						<polygon id="SVGID_26_" points="339.56,490.95 689.52,287.59 1012.36,473.97 662.41,677.36 						"/>
					</defs>
					<clipPath id="SVGID_27_">
						<use xlink:href="#SVGID_26_"  style="overflow:visible;"/>
					</clipPath>
					<g class="st16">
						<g>
							<g>
								<g>
									<path class="st4" d="M641.27,385.54c-14.49-8.36-34.42-13.84-56.58-14.4c-46.51-1.19-84.81,19.18-86.61,44.63
										c-0.96,13.51,8.1,25.85,23.53,34.75c14.31,8.26,34.1,13.57,56.47,14.14c46,1.18,85.29-18.57,87.12-44.62
										C666.14,406.86,656.85,394.53,641.27,385.54 M830.33,514.49c-14.34-8.28-34.06-13.69-56.1-14.25
										c-46.51-1.19-84.81,19.18-86.61,44.63c-0.94,13.32,8.06,25.56,23.42,34.42c14.32,8.27,34.16,13.61,56.59,14.18
										c46,1.18,84.78-18.59,86.59-44.34C855.18,535.88,845.93,523.49,830.33,514.49 M747.03,560.58
										c-6.44-3.72-10.22-8.95-9.81-14.74c0.75-10.65,16.21-19.16,35.11-18.68c8.97,0.23,16.99,2.43,22.86,5.82
										c6.51,3.77,10.4,8.98,9.99,14.58c-0.77,10.95-16.71,19.15-35.63,18.65C760.66,566.02,752.79,563.9,747.03,560.58
										 M557.46,431.77c-6.44-3.72-10.22-8.95-9.81-14.74c0.75-10.65,16.21-19.16,35.11-18.68c8.97,0.23,16.99,2.43,22.88,5.82
										c6.51,3.77,10.39,8.98,10,14.58c-0.77,10.95-16.73,19.15-35.63,18.65C571.09,437.21,563.21,435.09,557.46,431.77
										 M852.26,381.53l-59.8-1.53L499.07,583.05l59.8,1.53L852.26,381.53"/>
								</g>
							</g>
						</g>
					</g>
				</g>
			</g>
		</g>
	</g>
	<g>
		<g>
			<g class="st2">
				<g>
					<defs>
						<polygon id="SVGID_28_" points="339.56,492.55 689.52,289.17 1012.38,475.58 662.41,678.96 						"/>
					</defs>
					<clipPath id="SVGID_29_">
						<use xlink:href="#SVGID_28_"  style="overflow:visible;"/>
					</clipPath>
					<g class="st17">
						<g>
							<g>
								<g>
									<path class="st4" d="M641.28,387.14c-14.49-8.36-34.42-13.84-56.58-14.4c-46.51-1.19-84.83,19.18-86.62,44.63
										c-0.95,13.51,8.1,25.85,23.53,34.75c14.31,8.26,34.1,13.57,56.47,14.15c46,1.18,85.29-18.57,87.12-44.62
										C666.14,408.45,656.85,396.13,641.28,387.14 M830.34,516.09c-14.34-8.28-34.06-13.69-56.1-14.26
										c-46.51-1.19-84.81,19.18-86.62,44.63c-0.94,13.32,8.06,25.55,23.42,34.42c14.32,8.27,34.16,13.61,56.61,14.19
										c46,1.18,84.78-18.59,86.59-44.34C855.18,537.48,845.93,525.08,830.34,516.09 M747.03,562.18
										c-6.44-3.72-10.22-8.95-9.81-14.74c0.75-10.65,16.21-19.16,35.11-18.68c8.97,0.23,16.99,2.43,22.86,5.82
										c6.51,3.77,10.4,8.99,10,14.58c-0.77,10.95-16.71,19.15-35.63,18.65C760.66,567.61,752.79,565.49,747.03,562.18
										 M557.47,433.37c-6.44-3.72-10.22-8.95-9.81-14.74c0.75-10.65,16.21-19.16,35.11-18.68c8.97,0.23,16.99,2.43,22.86,5.82
										c6.51,3.77,10.4,8.99,10,14.58c-0.77,10.95-16.71,19.15-35.63,18.65C571.09,438.81,563.22,436.69,557.47,433.37
										 M852.26,383.13l-59.8-1.53L499.06,584.65l59.81,1.53L852.26,383.13"/>
								</g>
							</g>
						</g>
					</g>
				</g>
			</g>
		</g>
	</g>
	<g>
		<g>
			<g class="st2">
				<g>
					<defs>
						<polygon id="SVGID_30_" points="341.16,492.55 691.13,289.17 1013.96,475.58 664,678.96 						"/>
					</defs>
					<clipPath id="SVGID_31_">
						<use xlink:href="#SVGID_30_"  style="overflow:visible;"/>
					</clipPath>
					<g class="st18">
						<g>
							<g>
								<g>
									<path class="st4" d="M642.87,387.14c-14.49-8.36-34.42-13.84-56.58-14.4c-46.51-1.19-84.81,19.18-86.62,44.63
										c-0.95,13.51,8.1,25.85,23.53,34.75c14.31,8.26,34.1,13.57,56.49,14.15c45.99,1.18,85.28-18.58,87.12-44.62
										C667.74,408.45,658.45,396.13,642.87,387.14 M831.93,516.09c-14.34-8.28-34.06-13.69-56.1-14.26
										c-46.51-1.19-84.81,19.18-86.62,44.63c-0.94,13.32,8.06,25.55,23.42,34.42c14.32,8.27,34.16,13.61,56.62,14.19
										c45.99,1.18,84.77-18.59,86.59-44.34C856.78,537.48,847.53,525.08,831.93,516.09 M748.63,562.18
										c-6.44-3.72-10.22-8.95-9.81-14.74c0.75-10.65,16.21-19.16,35.11-18.68c8.97,0.23,16.99,2.43,22.86,5.82
										c6.51,3.77,10.4,8.99,10,14.58c-0.77,10.95-16.71,19.15-35.62,18.66C762.26,567.61,754.39,565.5,748.63,562.18
										 M559.07,433.37c-6.44-3.72-10.22-8.95-9.81-14.74c0.75-10.66,16.2-19.16,35.1-18.68c8.97,0.23,16.99,2.43,22.86,5.82
										c6.51,3.77,10.4,8.99,10,14.58c-0.77,10.95-16.71,19.15-35.62,18.66C572.69,438.81,564.82,436.69,559.07,433.37
										 M853.86,383.13l-59.81-1.54L500.66,584.65l59.81,1.53L853.86,383.13"/>
								</g>
							</g>
						</g>
					</g>
				</g>
			</g>
		</g>
	</g>
	<g>
		<g>
			<g class="st2">
				<g>
					<defs>
						<polygon id="SVGID_32_" points="341.16,494.14 691.13,290.77 1013.96,477.16 664,680.54 						"/>
					</defs>
					<clipPath id="SVGID_33_">
						<use xlink:href="#SVGID_32_"  style="overflow:visible;"/>
					</clipPath>
					<g class="st19">
						<g>
							<g>
								<g>
									<path class="st4" d="M642.87,388.73c-14.49-8.36-34.42-13.84-56.58-14.4c-46.51-1.19-84.81,19.18-86.62,44.63
										c-0.95,13.51,8.1,25.85,23.53,34.75c14.31,8.26,34.1,13.57,56.49,14.15c45.99,1.18,85.28-18.58,87.12-44.62
										C667.74,410.05,658.44,397.72,642.87,388.73 M831.93,517.68c-14.34-8.28-34.06-13.69-56.1-14.26
										c-46.51-1.19-84.83,19.18-86.62,44.63c-0.94,13.32,8.06,25.56,23.42,34.43c14.32,8.27,34.16,13.61,56.61,14.19
										c46,1.17,84.77-18.59,86.59-44.34C856.78,539.06,847.51,526.68,831.93,517.68 M748.62,563.77
										c-6.44-3.72-10.22-8.95-9.81-14.73c0.76-10.66,16.21-19.16,35.11-18.68c8.97,0.23,16.99,2.43,22.88,5.82
										c6.51,3.77,10.39,8.98,10,14.58c-0.77,10.95-16.71,19.15-35.62,18.66C762.26,569.21,754.37,567.09,748.62,563.77
										 M559.06,434.96c-6.44-3.72-10.22-8.95-9.81-14.73c0.75-10.66,16.21-19.16,35.11-18.68c8.97,0.23,16.99,2.43,22.86,5.82
										c6.51,3.77,10.4,8.99,10,14.58c-0.77,10.95-16.71,19.15-35.62,18.66C572.69,440.4,564.81,438.28,559.06,434.96
										 M853.86,384.73l-59.81-1.53L500.66,586.24l59.8,1.53L853.86,384.73"/>
								</g>
							</g>
						</g>
					</g>
				</g>
			</g>
		</g>
	</g>
	<g>
		<g>
			<g class="st2">
				<g>
					<defs>
						<polygon id="SVGID_34_" points="342.75,494.14 692.71,290.77 1015.57,477.16 665.59,680.54 						"/>
					</defs>
					<clipPath id="SVGID_35_">
						<use xlink:href="#SVGID_34_"  style="overflow:visible;"/>
					</clipPath>
					<g class="st20">
						<g>
							<g>
								<g>
									<path class="st4" d="M644.46,388.73c-14.49-8.36-34.42-13.84-56.58-14.4c-46.51-1.19-84.81,19.18-86.62,44.63
										c-0.95,13.51,8.1,25.85,23.53,34.75c14.31,8.27,34.1,13.57,56.49,14.15c45.99,1.18,85.28-18.58,87.12-44.62
										C669.33,410.05,660.04,397.72,644.46,388.73 M833.52,517.68c-14.34-8.28-34.06-13.69-56.1-14.26
										c-46.51-1.19-84.81,19.18-86.62,44.63c-0.94,13.33,8.06,25.56,23.43,34.43c14.32,8.27,34.16,13.61,56.59,14.19
										c46,1.17,84.77-18.59,86.59-44.34C858.37,539.06,849.12,526.68,833.52,517.68 M750.21,563.77
										c-6.44-3.72-10.22-8.95-9.81-14.73c0.76-10.66,16.21-19.16,35.1-18.68c8.97,0.23,16.99,2.43,22.88,5.82
										c6.51,3.77,10.39,8.98,10,14.58c-0.77,10.95-16.71,19.15-35.62,18.66C763.84,569.21,755.96,567.09,750.21,563.77
										 M560.64,434.96c-6.44-3.72-10.22-8.95-9.81-14.73c0.76-10.66,16.21-19.16,35.11-18.68c8.97,0.23,16.99,2.44,22.86,5.82
										c6.51,3.77,10.4,8.99,10,14.58c-0.78,10.95-16.71,19.15-35.63,18.65C574.28,440.4,566.4,438.28,560.64,434.96
										 M855.46,384.73l-59.81-1.53L502.26,586.24l59.8,1.53L855.46,384.73"/>
								</g>
							</g>
						</g>
					</g>
				</g>
			</g>
		</g>
	</g>
	<g>
		<g>
			<g class="st2">
				<g>
					<defs>
						<polygon id="SVGID_36_" points="342.75,495.74 692.71,292.37 1015.55,478.76 665.6,682.13 						"/>
					</defs>
					<clipPath id="SVGID_37_">
						<use xlink:href="#SVGID_36_"  style="overflow:visible;"/>
					</clipPath>
					<g class="st21">
						<g>
							<g>
								<g>
									<path class="st4" d="M644.46,390.32c-14.49-8.36-34.4-13.84-56.57-14.4c-46.51-1.19-84.81,19.18-86.62,44.63
										c-0.95,13.51,8.1,25.85,23.53,34.77c14.31,8.26,34.1,13.57,56.47,14.14c45.99,1.18,85.28-18.58,87.12-44.62
										C669.33,411.65,660.03,399.31,644.46,390.32 M833.52,519.27c-14.34-8.28-34.04-13.69-56.09-14.26
										c-46.51-1.18-84.81,19.18-86.62,44.63c-0.94,13.33,8.06,25.56,23.43,34.43c14.32,8.27,34.16,13.61,56.59,14.19
										c45.99,1.18,84.77-18.59,86.59-44.34C858.37,540.67,849.1,528.27,833.52,519.27 M750.22,565.37
										c-6.44-3.72-10.22-8.95-9.81-14.74c0.75-10.65,16.2-19.16,35.1-18.68c8.97,0.23,16.99,2.43,22.88,5.82
										c6.51,3.77,10.39,8.98,10,14.58c-0.78,10.95-16.71,19.15-35.63,18.66C763.84,570.81,755.97,568.69,750.22,565.37
										 M560.66,436.56c-6.44-3.72-10.22-8.95-9.81-14.73c0.75-10.65,16.2-19.16,35.1-18.68c8.98,0.23,17,2.44,22.88,5.84
										c6.51,3.77,10.39,8.98,10,14.58c-0.78,10.95-16.71,19.15-35.63,18.65C574.28,442,566.41,439.88,560.66,436.56
										 M855.45,386.33l-59.8-1.53L502.26,587.84l59.8,1.53L855.45,386.33"/>
								</g>
							</g>
						</g>
					</g>
				</g>
			</g>
		</g>
	</g>
	<g>
		<g>
			<g class="st2">
				<g>
					<defs>
						<polygon id="SVGID_38_" points="344.35,495.74 694.3,292.37 1017.15,478.76 667.2,682.15 						"/>
					</defs>
					<clipPath id="SVGID_39_">
						<use xlink:href="#SVGID_38_"  style="overflow:visible;"/>
					</clipPath>
					<g class="st22">
						<g>
							<g>
								<g>
									<path class="st4" d="M646.06,390.32c-14.49-8.36-34.4-13.84-56.57-14.4c-46.51-1.19-84.83,19.18-86.62,44.63
										c-0.96,13.51,8.1,25.85,23.53,34.75c14.31,8.26,34.1,13.57,56.47,14.14c46,1.18,85.29-18.57,87.12-44.62
										C670.93,411.65,661.63,399.31,646.06,390.32 M835.12,519.27c-14.34-8.28-34.04-13.69-56.09-14.25
										c-46.52-1.19-84.83,19.18-86.62,44.63c-0.94,13.32,8.06,25.56,23.42,34.42c14.32,8.27,34.16,13.61,56.59,14.18
										c46,1.18,84.78-18.59,86.59-44.34C859.97,540.67,850.7,528.27,835.12,519.27 M751.81,565.37
										c-6.44-3.72-10.22-8.95-9.81-14.74c0.75-10.65,16.21-19.16,35.11-18.68c8.97,0.23,16.99,2.43,22.88,5.82
										c6.51,3.75,10.39,8.98,10,14.58c-0.78,10.95-16.73,19.15-35.63,18.66C765.43,570.8,757.56,568.69,751.81,565.37
										 M562.24,436.56c-6.44-3.72-10.22-8.95-9.81-14.73c0.75-10.65,16.21-19.16,35.11-18.68c8.97,0.23,16.99,2.43,22.88,5.82
										c6.51,3.77,10.39,8.98,10,14.58c-0.77,10.95-16.71,19.15-35.63,18.65C575.88,441.99,568,439.88,562.24,436.56
										 M857.05,386.32l-59.8-1.53L503.84,587.83l59.8,1.53L857.05,386.32"/>
								</g>
							</g>
						</g>
					</g>
				</g>
			</g>
		</g>
	</g>
	<g>
		<g>
			<g class="st2">
				<g>
					<defs>
						<polygon id="SVGID_40_" points="344.35,497.34 694.31,293.96 1017.15,480.36 667.19,683.73 						"/>
					</defs>
					<clipPath id="SVGID_41_">
						<use xlink:href="#SVGID_40_"  style="overflow:visible;"/>
					</clipPath>
					<g class="st23">
						<g>
							<g>
								<g>
									<path class="st4" d="M646.07,391.92c-14.49-8.36-34.42-13.84-56.58-14.4c-46.51-1.19-84.81,19.18-86.62,44.63
										c-0.95,13.51,8.1,25.85,23.53,34.75c14.31,8.26,34.1,13.57,56.47,14.15c46,1.18,85.29-18.57,87.12-44.62
										C670.93,413.24,661.64,400.91,646.07,391.92 M835.12,520.87c-14.34-8.28-34.06-13.69-56.1-14.26
										c-46.51-1.19-84.81,19.18-86.62,44.63c-0.94,13.32,8.06,25.55,23.42,34.42c14.32,8.27,34.16,13.61,56.61,14.19
										c46,1.18,84.78-18.59,86.59-44.34C859.97,542.27,850.72,529.87,835.12,520.87 M751.82,566.96
										c-6.44-3.72-10.22-8.95-9.81-14.74c0.75-10.65,16.21-19.16,35.11-18.68c8.97,0.23,16.99,2.43,22.86,5.82
										c6.51,3.77,10.4,8.99,10,14.58c-0.77,10.95-16.71,19.15-35.63,18.65C765.45,572.4,757.58,570.28,751.82,566.96
										 M562.26,438.16c-6.44-3.72-10.22-8.95-9.81-14.74c0.75-10.65,16.21-19.16,35.11-18.68c8.97,0.23,16.99,2.43,22.86,5.82
										c6.51,3.77,10.4,8.98,9.99,14.58c-0.77,10.95-16.71,19.15-35.63,18.65C575.88,443.59,568.01,441.48,562.26,438.16
										 M857.05,387.92l-59.8-1.53L503.84,589.43l59.81,1.53L857.05,387.92"/>
								</g>
							</g>
						</g>
					</g>
				</g>
			</g>
		</g>
	</g>
	<g>
		<g>
			<g class="st2">
				<g>
					<defs>
						<polygon id="SVGID_42_" points="345.47,497.34 695.43,293.96 1018.27,480.36 668.31,683.73 						"/>
					</defs>
					<clipPath id="SVGID_43_">
						<use xlink:href="#SVGID_42_"  style="overflow:visible;"/>
					</clipPath>
					<g class="st24">
						<g>
							<g>
								<g>
									<path class="st25" d="M647.18,391.92c-14.49-8.36-34.42-13.84-56.58-14.4c-46.51-1.19-84.81,19.18-86.62,44.63
										c-0.95,13.51,8.1,25.85,23.53,34.75c14.31,8.26,34.1,13.57,56.47,14.15c46,1.18,85.29-18.57,87.12-44.62
										C672.05,413.24,662.75,400.91,647.18,391.92 M836.24,520.87c-14.34-8.28-34.06-13.69-56.1-14.26
										c-46.51-1.19-84.81,19.18-86.62,44.63c-0.94,13.32,8.06,25.55,23.42,34.42c14.32,8.27,34.16,13.61,56.61,14.19
										c46,1.18,84.78-18.59,86.59-44.34C861.09,542.27,851.82,529.87,836.24,520.87 M752.94,566.96
										c-6.44-3.72-10.22-8.95-9.81-14.74c0.75-10.65,16.21-19.16,35.11-18.68c8.97,0.23,16.99,2.43,22.86,5.82
										c6.51,3.77,10.4,8.99,10,14.58c-0.77,10.95-16.71,19.15-35.63,18.65C766.55,572.4,758.68,570.28,752.94,566.96
										 M563.38,438.16c-6.44-3.72-10.22-8.95-9.81-14.74c0.75-10.65,16.21-19.16,35.11-18.68c8.97,0.23,16.99,2.43,22.86,5.82
										c6.51,3.77,10.4,8.98,9.99,14.58c-0.77,10.95-16.71,19.15-35.63,18.65C576.99,443.59,569.12,441.48,563.38,438.16
										 M858.16,387.92l-59.8-1.53L504.96,589.43l59.81,1.53L858.16,387.92"/>
								</g>
							</g>
						</g>
					</g>
				</g>
			</g>
		</g>
	</g>
	<g>
		<path class="st4" d="M68.19,332.24c0-149.47,46.9-268.16,189.03-268.16c142.14,0,188.29,118.69,188.29,268.16
			c0,149.46-46.16,269.63-188.29,269.63S68.19,481.71,68.19,332.24z M348.8,332.24c0-101.11-20.52-180.97-91.59-180.97
			s-91.59,79.86-91.59,180.97c0,102.58,20.52,183.16,91.59,183.16C328.3,515.42,348.8,434.82,348.8,332.24z"/>
	</g>
	<g>
		<path class="st4" d="M66.61,332.24c0-149.47,46.9-268.16,189.03-268.16c142.14,0,188.29,118.69,188.29,268.16
			c0,149.46-46.16,269.63-188.29,269.63C113.5,601.87,66.61,481.71,66.61,332.24z M347.23,332.24
			c0-101.11-20.52-180.97-91.59-180.97s-91.59,79.86-91.59,180.97c0,102.58,20.52,183.16,91.59,183.16
			C326.71,515.42,347.23,434.82,347.23,332.24z"/>
	</g>
	<g>
		<path class="st4" d="M66.61,333.83c0-149.47,46.9-268.16,189.03-268.16c142.14,0,188.29,118.69,188.29,268.16
			c0,149.46-46.16,269.63-188.29,269.63C113.5,603.46,66.61,483.3,66.61,333.83z M347.23,333.83c0-101.11-20.52-180.97-91.59-180.97
			s-91.59,79.86-91.59,180.97c0,102.58,20.52,183.16,91.59,183.16S347.23,436.41,347.23,333.83z"/>
	</g>
	<g>
		<path class="st4" d="M65.02,333.83c0-149.47,46.9-268.16,189.03-268.16c142.14,0,188.29,118.69,188.29,268.16
			c0,149.46-46.16,269.63-188.29,269.63S65.02,483.3,65.02,333.83z M345.64,333.83c0-101.11-20.52-180.97-91.59-180.97
			s-91.59,79.86-91.59,180.97c0,102.58,20.52,183.16,91.59,183.16S345.64,436.41,345.64,333.83z"/>
	</g>
	<g>
		<path class="st4" d="M65.02,335.42c0-149.47,46.9-268.16,189.03-268.16c142.14,0,188.29,118.69,188.29,268.16
			c0,149.46-46.16,269.63-188.29,269.63S65.02,484.88,65.02,335.42z M345.64,335.42c0-101.11-20.52-180.97-91.59-180.97
			s-91.59,79.86-91.59,180.97c0,102.58,20.52,183.16,91.59,183.16S345.64,437.99,345.64,335.42z"/>
	</g>
	<g>
		<path class="st4" d="M63.44,335.42c0-149.47,46.9-268.16,189.03-268.16c142.14,0,188.29,118.69,188.29,268.16
			c0,149.46-46.16,269.63-188.29,269.63S63.44,484.88,63.44,335.42z M344.05,335.42c0-101.11-20.52-180.97-91.59-180.97
			s-91.59,79.86-91.59,180.97c0,102.58,20.52,183.16,91.59,183.16S344.05,437.99,344.05,335.42z"/>
	</g>
	<g>
		<path class="st4" d="M63.44,337.01c0-149.47,46.9-268.16,189.03-268.16c142.14,0,188.29,118.69,188.29,268.16
			c0,149.46-46.16,269.63-188.29,269.63C110.33,606.62,63.44,486.47,63.44,337.01z M344.05,337.01
			c0-101.11-20.52-180.97-91.59-180.97s-91.59,79.86-91.59,180.97c0,102.58,20.52,183.16,91.59,183.16S344.05,439.57,344.05,337.01z
			"/>
	</g>
	<g>
		<path class="st4" d="M61.86,337.01c0-149.47,46.9-268.16,189.03-268.16c142.14,0,188.29,118.69,188.29,268.16
			c0,149.46-46.16,269.63-188.29,269.63C108.74,606.62,61.86,486.47,61.86,337.01z M342.47,337.01
			c0-101.11-20.52-180.97-91.59-180.97s-91.59,79.86-91.59,180.97c0,102.58,20.52,183.16,91.59,183.16S342.47,439.57,342.47,337.01z
			"/>
	</g>
	<g>
		<path class="st4" d="M61.86,338.58c0-149.47,46.9-268.16,189.03-268.16c142.14,0,188.29,118.69,188.29,268.16
			c0,149.46-46.16,269.63-188.29,269.63C108.74,608.21,61.86,488.05,61.86,338.58z M342.47,338.58
			c0-101.11-20.52-180.97-91.59-180.97s-91.59,79.86-91.59,180.97c0,102.58,20.52,183.16,91.59,183.16S342.47,441.16,342.47,338.58z
			"/>
	</g>
	<g>
		<path class="st4" d="M60.27,338.58c0-149.47,46.9-268.16,189.03-268.16c142.14,0,188.29,118.69,188.29,268.16
			c0,149.46-46.16,269.63-188.29,269.63C107.15,608.21,60.27,488.05,60.27,338.58z M340.88,338.58
			c0-101.11-20.52-180.97-91.59-180.97s-91.59,79.86-91.59,180.97c0,102.58,20.52,183.16,91.59,183.16S340.88,441.16,340.88,338.58z
			"/>
	</g>
	<g>
		<path class="st4" d="M60.27,340.17c0-149.47,46.9-268.16,189.03-268.16c142.14,0,188.29,118.69,188.29,268.16
			c0,149.46-46.16,269.63-188.29,269.63C107.15,609.8,60.27,489.63,60.27,340.17z M340.88,340.17
			c0-101.11-20.52-180.97-91.59-180.97s-91.59,79.86-91.59,180.97c0,102.58,20.52,183.16,91.59,183.16S340.88,442.75,340.88,340.17z
			"/>
	</g>
	<g>
		<path class="st4" d="M58.68,340.17c0-149.47,46.9-268.16,189.03-268.16C389.85,72.01,436,190.7,436,340.17
			c0,149.46-46.16,269.63-188.29,269.63S58.68,489.63,58.68,340.17z M339.3,340.17c0-101.11-20.52-180.97-91.59-180.97
			s-91.59,79.86-91.59,180.97c0,102.58,20.52,183.16,91.59,183.16S339.3,442.75,339.3,340.17z"/>
	</g>
	<g>
		<path class="st4" d="M58.68,341.76c0-149.47,46.9-268.16,189.03-268.16C389.85,73.6,436,192.29,436,341.76
			c0,149.46-46.16,269.63-188.29,269.63C105.58,611.38,58.68,491.22,58.68,341.76z M339.3,341.76
			c0-101.11-20.52-180.97-91.59-180.97s-91.59,79.86-91.59,180.97c0,102.58,20.52,183.16,91.59,183.16S339.3,444.34,339.3,341.76z"
			/>
	</g>
	<g>
		<path class="st4" d="M57.09,341.76c0-149.47,46.9-268.16,189.03-268.16c142.14,0,188.29,118.69,188.29,268.16
			c0,149.46-46.16,269.63-188.29,269.63C103.99,611.38,57.09,491.22,57.09,341.76z M337.71,341.76
			c0-101.11-20.52-180.97-91.59-180.97s-91.59,79.86-91.59,180.97c0,102.58,20.52,183.16,91.59,183.16
			C317.2,524.93,337.71,444.34,337.71,341.76z"/>
	</g>
	<g>
		<path class="st4" d="M57.09,343.34c0-149.47,46.9-268.16,189.03-268.16c142.14,0,188.29,118.69,188.29,268.16
			c0,149.46-46.16,269.63-188.29,269.63S57.09,492.81,57.09,343.34z M337.71,343.34c0-101.11-20.52-180.97-91.59-180.97
			s-91.59,79.86-91.59,180.97c0,102.58,20.52,183.16,91.59,183.16C317.2,526.51,337.71,445.91,337.71,343.34z"/>
	</g>
	<g>
		<path class="st4" d="M55.52,343.34c0-149.47,46.9-268.16,189.03-268.16c142.14,0,188.29,118.69,188.29,268.16
			c0,149.46-46.16,269.63-188.29,269.63C102.4,612.96,55.52,492.81,55.52,343.34z M336.13,343.34
			c0-101.11-20.52-180.97-91.59-180.97s-91.59,79.86-91.59,180.97c0,102.58,20.52,183.16,91.59,183.16
			C315.61,526.51,336.13,445.91,336.13,343.34z"/>
	</g>
	<g>
		<path class="st4" d="M55.52,344.93c0-149.47,46.9-268.16,189.03-268.16c142.14,0,188.29,118.69,188.29,268.16
			c0,149.46-46.16,269.63-188.29,269.63C102.4,614.55,55.52,494.4,55.52,344.93z M336.13,344.93c0-101.11-20.52-180.97-91.59-180.97
			s-91.59,79.86-91.59,180.97c0,102.58,20.52,183.16,91.59,183.16S336.13,447.5,336.13,344.93z"/>
	</g>
	<g>
		<path class="st4" d="M53.93,344.93c0-149.47,46.9-268.16,189.03-268.16c142.14,0,188.29,118.69,188.29,268.16
			c0,149.46-46.16,269.63-188.29,269.63S53.93,494.4,53.93,344.93z M334.54,344.93c0-101.11-20.52-180.97-91.59-180.97
			s-91.59,79.86-91.59,180.97c0,102.58,20.52,183.16,91.59,183.16S334.54,447.5,334.54,344.93z"/>
	</g>
	<g>
		<path class="st4" d="M53.93,346.51c0-149.47,46.9-268.16,189.03-268.16c142.14,0,188.29,118.69,188.29,268.16
			c0,149.46-46.16,269.63-188.29,269.63C100.82,616.13,53.93,495.97,53.93,346.51z M334.54,346.51
			c0-101.11-20.52-180.97-91.59-180.97s-91.59,79.86-91.59,180.97c0,102.58,20.52,183.16,91.59,183.16S334.54,449.09,334.54,346.51z
			"/>
	</g>
	<g>
		<path class="st4" d="M68.19,330.67c0-149.47,46.9-268.16,189.03-268.16c142.14,0,188.29,118.69,188.29,268.16
			c0,149.46-46.16,269.63-188.29,269.63C115.08,600.28,68.19,480.12,68.19,330.67z M348.8,330.67
			c0-101.11-20.52-180.97-91.59-180.97s-91.59,79.86-91.59,180.97c0,102.58,20.52,183.16,91.59,183.16
			C328.3,513.83,348.8,433.24,348.8,330.67z"/>
	</g>
	<g>
		<path class="st4" d="M66.61,330.67c0-149.47,46.9-268.16,189.03-268.16c142.14,0,188.29,118.69,188.29,268.16
			c0,149.46-46.16,269.63-188.29,269.63C113.5,600.28,66.61,480.12,66.61,330.67z M347.23,330.67
			c0-101.11-20.52-180.97-91.59-180.97s-91.59,79.86-91.59,180.97c0,102.58,20.52,183.16,91.59,183.16S347.23,433.24,347.23,330.67z
			"/>
	</g>
	<g>
		<path class="st4" d="M66.61,332.24c0-149.47,46.9-268.16,189.03-268.16c142.14,0,188.29,118.69,188.29,268.16
			c0,149.46-46.16,269.63-188.29,269.63C113.5,601.87,66.61,481.71,66.61,332.24z M347.23,332.24
			c0-101.11-20.52-180.97-91.59-180.97s-91.59,79.86-91.59,180.97c0,102.58,20.52,183.16,91.59,183.16
			C326.71,515.42,347.23,434.82,347.23,332.24z"/>
	</g>
	<g>
		<path class="st4" d="M65.02,332.24c0-149.47,46.9-268.16,189.03-268.16c142.14,0,188.29,118.69,188.29,268.16
			c0,149.46-46.16,269.63-188.29,269.63S65.02,481.71,65.02,332.24z M345.64,332.24c0-101.11-20.52-180.97-91.59-180.97
			s-91.59,79.86-91.59,180.97c0,102.58,20.52,183.16,91.59,183.16C325.12,515.42,345.64,434.82,345.64,332.24z"/>
	</g>
	<g>
		<path class="st4" d="M65.02,333.83c0-149.47,46.9-268.16,189.03-268.16c142.14,0,188.29,118.69,188.29,268.16
			c0,149.46-46.16,269.63-188.29,269.63S65.02,483.3,65.02,333.83z M345.64,333.83c0-101.11-20.52-180.97-91.59-180.97
			s-91.59,79.86-91.59,180.97c0,102.58,20.52,183.16,91.59,183.16S345.64,436.41,345.64,333.83z"/>
	</g>
	<g>
		<path class="st4" d="M63.44,333.83c0-149.47,46.9-268.16,189.03-268.16c142.14,0,188.29,118.69,188.29,268.16
			c0,149.46-46.16,269.63-188.29,269.63S63.44,483.3,63.44,333.83z M344.05,333.83c0-101.11-20.52-180.97-91.59-180.97
			s-91.59,79.86-91.59,180.97c0,102.58,20.52,183.16,91.59,183.16S344.05,436.41,344.05,333.83z"/>
	</g>
	<g>
		<path class="st4" d="M63.44,335.42c0-149.47,46.9-268.16,189.03-268.16c142.14,0,188.29,118.69,188.29,268.16
			c0,149.46-46.16,269.63-188.29,269.63S63.44,484.88,63.44,335.42z M344.05,335.42c0-101.11-20.52-180.97-91.59-180.97
			s-91.59,79.86-91.59,180.97c0,102.58,20.52,183.16,91.59,183.16S344.05,437.99,344.05,335.42z"/>
	</g>
	<g>
		<path class="st4" d="M61.86,335.42c0-149.47,46.9-268.16,189.03-268.16c142.14,0,188.29,118.69,188.29,268.16
			c0,149.46-46.16,269.63-188.29,269.63C108.74,605.05,61.86,484.88,61.86,335.42z M342.47,335.42
			c0-101.11-20.52-180.97-91.59-180.97S159.3,234.3,159.3,335.42c0,102.58,20.52,183.16,91.59,183.16S342.47,437.99,342.47,335.42z"
			/>
	</g>
	<g>
		<path class="st4" d="M61.86,337.01c0-149.47,46.9-268.16,189.03-268.16c142.14,0,188.29,118.69,188.29,268.16
			c0,149.46-46.16,269.63-188.29,269.63C108.74,606.62,61.86,486.47,61.86,337.01z M342.47,337.01
			c0-101.11-20.52-180.97-91.59-180.97s-91.59,79.86-91.59,180.97c0,102.58,20.52,183.16,91.59,183.16S342.47,439.57,342.47,337.01z
			"/>
	</g>
	<g>
		<path class="st4" d="M60.27,337.01c0-149.47,46.9-268.16,189.03-268.16c142.14,0,188.29,118.69,188.29,268.16
			c0,149.46-46.16,269.63-188.29,269.63C107.15,606.62,60.27,486.47,60.27,337.01z M340.88,337.01
			c0-101.11-20.52-180.97-91.59-180.97s-91.59,79.86-91.59,180.97c0,102.58,20.52,183.16,91.59,183.16S340.88,439.57,340.88,337.01z
			"/>
	</g>
	<g>
		<path class="st4" d="M60.27,338.58c0-149.47,46.9-268.16,189.03-268.16c142.14,0,188.29,118.69,188.29,268.16
			c0,149.46-46.16,269.63-188.29,269.63C107.15,608.21,60.27,488.05,60.27,338.58z M340.88,338.58
			c0-101.11-20.52-180.97-91.59-180.97s-91.59,79.86-91.59,180.97c0,102.58,20.52,183.16,91.59,183.16S340.88,441.16,340.88,338.58z
			"/>
	</g>
	<g>
		<path class="st4" d="M58.68,338.58c0-149.47,46.9-268.16,189.03-268.16C389.85,70.43,436,189.11,436,338.58
			c0,149.46-46.16,269.63-188.29,269.63S58.68,488.05,58.68,338.58z M339.3,338.58c0-101.11-20.52-180.97-91.59-180.97
			s-91.59,79.86-91.59,180.97c0,102.58,20.52,183.16,91.59,183.16S339.3,441.16,339.3,338.58z"/>
	</g>
	<g>
		<path class="st4" d="M58.68,340.17c0-149.47,46.9-268.16,189.03-268.16C389.85,72.01,436,190.7,436,340.17
			c0,149.46-46.16,269.63-188.29,269.63S58.68,489.63,58.68,340.17z M339.3,340.17c0-101.11-20.52-180.97-91.59-180.97
			s-91.59,79.86-91.59,180.97c0,102.58,20.52,183.16,91.59,183.16S339.3,442.75,339.3,340.17z"/>
	</g>
	<g>
		<path class="st4" d="M57.09,340.17c0-149.47,46.9-268.16,189.03-268.16c142.14,0,188.29,118.69,188.29,268.16
			c0,149.46-46.16,269.63-188.29,269.63S57.09,489.63,57.09,340.17z M337.71,340.17c0-101.11-20.52-180.97-91.59-180.97
			s-91.59,79.86-91.59,180.97c0,102.58,20.52,183.16,91.59,183.16C317.2,523.34,337.71,442.75,337.71,340.17z"/>
	</g>
	<g>
		<path class="st4" d="M57.09,341.76c0-149.47,46.9-268.16,189.03-268.16c142.14,0,188.29,118.69,188.29,268.16
			c0,149.46-46.16,269.63-188.29,269.63C103.99,611.38,57.09,491.22,57.09,341.76z M337.71,341.76
			c0-101.11-20.52-180.97-91.59-180.97s-91.59,79.86-91.59,180.97c0,102.58,20.52,183.16,91.59,183.16
			C317.2,524.93,337.71,444.34,337.71,341.76z"/>
	</g>
	<g>
		<path class="st4" d="M55.52,341.76c0-149.47,46.9-268.16,189.03-268.16c142.14,0,188.29,118.69,188.29,268.16
			c0,149.46-46.16,269.63-188.29,269.63C102.4,611.38,55.52,491.22,55.52,341.76z M336.13,341.76
			c0-101.11-20.52-180.97-91.59-180.97s-91.59,79.86-91.59,180.97c0,102.58,20.52,183.16,91.59,183.16S336.13,444.34,336.13,341.76z
			"/>
	</g>
	<g>
		<path class="st4" d="M55.52,343.34c0-149.47,46.9-268.16,189.03-268.16c142.14,0,188.29,118.69,188.29,268.16
			c0,149.46-46.16,269.63-188.29,269.63C102.4,612.96,55.52,492.81,55.52,343.34z M336.13,343.34
			c0-101.11-20.52-180.97-91.59-180.97s-91.59,79.86-91.59,180.97c0,102.58,20.52,183.16,91.59,183.16
			C315.61,526.51,336.13,445.91,336.13,343.34z"/>
	</g>
	<g>
		<path class="st4" d="M53.93,343.34c0-149.47,46.9-268.16,189.03-268.16c142.14,0,188.29,118.69,188.29,268.16
			c0,149.46-46.16,269.63-188.29,269.63S53.93,492.81,53.93,343.34z M334.54,343.34c0-101.11-20.52-180.97-91.59-180.97
			s-91.59,79.86-91.59,180.97c0,102.58,20.52,183.16,91.59,183.16C314.03,526.51,334.54,445.91,334.54,343.34z"/>
	</g>
	<g>
		<path class="st4" d="M53.93,344.93c0-149.47,46.9-268.16,189.03-268.16c142.14,0,188.29,118.69,188.29,268.16
			c0,149.46-46.16,269.63-188.29,269.63S53.93,494.4,53.93,344.93z M334.54,344.93c0-101.11-20.52-180.97-91.59-180.97
			s-91.59,79.86-91.59,180.97c0,102.58,20.52,183.16,91.59,183.16S334.54,447.5,334.54,344.93z"/>
	</g>
	<g>
		<path class="st26" d="M69.78,330.67c0-149.47,46.9-268.16,189.03-268.16c142.14,0,188.29,118.69,188.29,268.16
			c0,149.46-46.16,269.63-188.29,269.63C116.67,600.28,69.78,480.12,69.78,330.67z M350.39,330.67
			c0-101.11-20.52-180.97-91.59-180.97s-91.59,79.86-91.59,180.97c0,102.58,20.52,183.16,91.59,183.16S350.39,433.24,350.39,330.67z
			"/>
	</g>
	<g>
		<path class="st4" d="M68.19,330.67c0-149.47,46.9-268.16,189.03-268.16c142.14,0,188.29,118.69,188.29,268.16
			c0,149.46-46.16,269.63-188.29,269.63C115.08,600.28,68.19,480.12,68.19,330.67z M348.8,330.67
			c0-101.11-20.52-180.97-91.59-180.97s-91.59,79.86-91.59,180.97c0,102.58,20.52,183.16,91.59,183.16
			C328.3,513.83,348.8,433.24,348.8,330.67z"/>
	</g>
	<g>
		<path class="st4" d="M68.19,332.24c0-149.47,46.9-268.16,189.03-268.16c142.14,0,188.29,118.69,188.29,268.16
			c0,149.46-46.16,269.63-188.29,269.63S68.19,481.71,68.19,332.24z M348.8,332.24c0-101.11-20.52-180.97-91.59-180.97
			s-91.59,79.86-91.59,180.97c0,102.58,20.52,183.16,91.59,183.16C328.3,515.42,348.8,434.82,348.8,332.24z"/>
	</g>
	<g>
		<path class="st4" d="M66.61,332.24c0-149.47,46.9-268.16,189.03-268.16c142.14,0,188.29,118.69,188.29,268.16
			c0,149.46-46.16,269.63-188.29,269.63C113.5,601.87,66.61,481.71,66.61,332.24z M347.23,332.24
			c0-101.11-20.52-180.97-91.59-180.97s-91.59,79.86-91.59,180.97c0,102.58,20.52,183.16,91.59,183.16
			C326.71,515.42,347.23,434.82,347.23,332.24z"/>
	</g>
	<g>
		<path class="st4" d="M66.61,333.83c0-149.47,46.9-268.16,189.03-268.16c142.14,0,188.29,118.69,188.29,268.16
			c0,149.46-46.16,269.63-188.29,269.63C113.5,603.46,66.61,483.3,66.61,333.83z M347.23,333.83c0-101.11-20.52-180.97-91.59-180.97
			s-91.59,79.86-91.59,180.97c0,102.58,20.52,183.16,91.59,183.16S347.23,436.41,347.23,333.83z"/>
	</g>
	<g>
		<path class="st4" d="M65.02,333.83c0-149.47,46.9-268.16,189.03-268.16c142.14,0,188.29,118.69,188.29,268.16
			c0,149.46-46.16,269.63-188.29,269.63S65.02,483.3,65.02,333.83z M345.64,333.83c0-101.11-20.52-180.97-91.59-180.97
			s-91.59,79.86-91.59,180.97c0,102.58,20.52,183.16,91.59,183.16S345.64,436.41,345.64,333.83z"/>
	</g>
	<g>
		<path class="st4" d="M65.02,335.42c0-149.47,46.9-268.16,189.03-268.16c142.14,0,188.29,118.69,188.29,268.16
			c0,149.46-46.16,269.63-188.29,269.63S65.02,484.88,65.02,335.42z M345.64,335.42c0-101.11-20.52-180.97-91.59-180.97
			s-91.59,79.86-91.59,180.97c0,102.58,20.52,183.16,91.59,183.16S345.64,437.99,345.64,335.42z"/>
	</g>
	<g>
		<path class="st4" d="M63.44,335.42c0-149.47,46.9-268.16,189.03-268.16c142.14,0,188.29,118.69,188.29,268.16
			c0,149.46-46.16,269.63-188.29,269.63S63.44,484.88,63.44,335.42z M344.05,335.42c0-101.11-20.52-180.97-91.59-180.97
			s-91.59,79.86-91.59,180.97c0,102.58,20.52,183.16,91.59,183.16S344.05,437.99,344.05,335.42z"/>
	</g>
	<g>
		<path class="st4" d="M63.44,337.01c0-149.47,46.9-268.16,189.03-268.16c142.14,0,188.29,118.69,188.29,268.16
			c0,149.46-46.16,269.63-188.29,269.63C110.33,606.62,63.44,486.47,63.44,337.01z M344.05,337.01
			c0-101.11-20.52-180.97-91.59-180.97s-91.59,79.86-91.59,180.97c0,102.58,20.52,183.16,91.59,183.16S344.05,439.57,344.05,337.01z
			"/>
	</g>
	<g>
		<path class="st4" d="M61.86,337.01c0-149.47,46.9-268.16,189.03-268.16c142.14,0,188.29,118.69,188.29,268.16
			c0,149.46-46.16,269.63-188.29,269.63C108.74,606.62,61.86,486.47,61.86,337.01z M342.47,337.01
			c0-101.11-20.52-180.97-91.59-180.97s-91.59,79.86-91.59,180.97c0,102.58,20.52,183.16,91.59,183.16S342.47,439.57,342.47,337.01z
			"/>
	</g>
	<g>
		<path class="st4" d="M61.86,338.58c0-149.47,46.9-268.16,189.03-268.16c142.14,0,188.29,118.69,188.29,268.16
			c0,149.46-46.16,269.63-188.29,269.63C108.74,608.21,61.86,488.05,61.86,338.58z M342.47,338.58
			c0-101.11-20.52-180.97-91.59-180.97s-91.59,79.86-91.59,180.97c0,102.58,20.52,183.16,91.59,183.16S342.47,441.16,342.47,338.58z
			"/>
	</g>
	<g>
		<path class="st4" d="M60.27,338.58c0-149.47,46.9-268.16,189.03-268.16c142.14,0,188.29,118.69,188.29,268.16
			c0,149.46-46.16,269.63-188.29,269.63C107.15,608.21,60.27,488.05,60.27,338.58z M340.88,338.58
			c0-101.11-20.52-180.97-91.59-180.97s-91.59,79.86-91.59,180.97c0,102.58,20.52,183.16,91.59,183.16S340.88,441.16,340.88,338.58z
			"/>
	</g>
	<g>
		<path class="st4" d="M60.27,340.17c0-149.47,46.9-268.16,189.03-268.16c142.14,0,188.29,118.69,188.29,268.16
			c0,149.46-46.16,269.63-188.29,269.63C107.15,609.8,60.27,489.63,60.27,340.17z M340.88,340.17
			c0-101.11-20.52-180.97-91.59-180.97s-91.59,79.86-91.59,180.97c0,102.58,20.52,183.16,91.59,183.16S340.88,442.75,340.88,340.17z
			"/>
	</g>
	<g>
		<path class="st4" d="M58.68,340.17c0-149.47,46.9-268.16,189.03-268.16C389.85,72.01,436,190.7,436,340.17
			c0,149.46-46.16,269.63-188.29,269.63S58.68,489.63,58.68,340.17z M339.3,340.17c0-101.11-20.52-180.97-91.59-180.97
			s-91.59,79.86-91.59,180.97c0,102.58,20.52,183.16,91.59,183.16S339.3,442.75,339.3,340.17z"/>
	</g>
	<g>
		<path class="st4" d="M58.68,341.76c0-149.47,46.9-268.16,189.03-268.16C389.85,73.6,436,192.29,436,341.76
			c0,149.46-46.16,269.63-188.29,269.63C105.58,611.38,58.68,491.22,58.68,341.76z M339.3,341.76
			c0-101.11-20.52-180.97-91.59-180.97s-91.59,79.86-91.59,180.97c0,102.58,20.52,183.16,91.59,183.16S339.3,444.34,339.3,341.76z"
			/>
	</g>
	<g>
		<path class="st4" d="M57.09,341.76c0-149.47,46.9-268.16,189.03-268.16c142.14,0,188.29,118.69,188.29,268.16
			c0,149.46-46.16,269.63-188.29,269.63C103.99,611.38,57.09,491.22,57.09,341.76z M337.71,341.76
			c0-101.11-20.52-180.97-91.59-180.97s-91.59,79.86-91.59,180.97c0,102.58,20.52,183.16,91.59,183.16
			C317.2,524.93,337.71,444.34,337.71,341.76z"/>
	</g>
	<g>
		<path class="st4" d="M57.09,343.34c0-149.47,46.9-268.16,189.03-268.16c142.14,0,188.29,118.69,188.29,268.16
			c0,149.46-46.16,269.63-188.29,269.63S57.09,492.81,57.09,343.34z M337.71,343.34c0-101.11-20.52-180.97-91.59-180.97
			s-91.59,79.86-91.59,180.97c0,102.58,20.52,183.16,91.59,183.16C317.2,526.51,337.71,445.91,337.71,343.34z"/>
	</g>
	<g>
		<path class="st4" d="M55.52,343.34c0-149.47,46.9-268.16,189.03-268.16c142.14,0,188.29,118.69,188.29,268.16
			c0,149.46-46.16,269.63-188.29,269.63C102.4,612.96,55.52,492.81,55.52,343.34z M336.13,343.34
			c0-101.11-20.52-180.97-91.59-180.97s-91.59,79.86-91.59,180.97c0,102.58,20.52,183.16,91.59,183.16
			C315.61,526.51,336.13,445.91,336.13,343.34z"/>
	</g>
	<g>
		<path class="st4" d="M55.52,344.93c0-149.47,46.9-268.16,189.03-268.16c142.14,0,188.29,118.69,188.29,268.16
			c0,149.46-46.16,269.63-188.29,269.63C102.4,614.55,55.52,494.4,55.52,344.93z M336.13,344.93c0-101.11-20.52-180.97-91.59-180.97
			s-91.59,79.86-91.59,180.97c0,102.58,20.52,183.16,91.59,183.16S336.13,447.5,336.13,344.93z"/>
	</g>
	<g>
		<path class="st27" d="M52.34,346.51c0-149.47,46.9-268.16,189.03-268.16c142.14,0,188.29,118.69,188.29,268.16
			c0,149.46-46.16,269.63-188.29,269.63C99.24,616.13,52.34,495.97,52.34,346.51z M332.95,346.51
			c0-101.11-20.52-180.97-91.59-180.97s-91.59,79.86-91.59,180.97c0,102.58,20.52,183.16,91.59,183.16S332.95,449.09,332.95,346.51z
			"/>
	</g>
</g>
</svg>
