<?xml version="1.0" encoding="utf-8"?>
<!-- Generator: Adobe Illustrator 24.1.2, SVG Export Plug-In . SVG Version: 6.00 Build 0)  -->
<svg version="1.1" xmlns="http://www.w3.org/2000/svg" xmlns:xlink="http://www.w3.org/1999/xlink" x="0px" y="0px"
	 viewBox="0 0 1080 1080" style="enable-background:new 0 0 1080 1080;" xml:space="preserve">
<style type="text/css">
	.st0{fill:url(#SVGID_1_);stroke:#000000;stroke-miterlimit:10;}
	.st1{fill:url(#SVGID_2_);stroke:#000000;stroke-miterlimit:10;}
	.st2{fill:url(#SVGID_3_);stroke:#000000;stroke-miterlimit:10;}
	.st3{fill:url(#SVGID_4_);stroke:#000000;stroke-miterlimit:10;}
	.st4{fill:none;stroke:#000000;stroke-miterlimit:10;}
	.st5{enable-background:new    ;}
	.st6{clip-path:url(#SVGID_6_);}
	.st7{fill:#262626;stroke:#000000;stroke-miterlimit:10;}
	.st8{clip-path:url(#SVGID_8_);}
	.st9{clip-path:url(#SVGID_10_);}
	.st10{fill:#424242;}
	.st11{clip-path:url(#SVGID_12_);}
	.st12{clip-path:url(#SVGID_14_);}
	.st13{clip-path:url(#SVGID_16_);}
	.st14{clip-path:url(#SVGID_18_);}
	.st15{clip-path:url(#SVGID_20_);}
	.st16{clip-path:url(#SVGID_22_);}
	.st17{clip-path:url(#SVGID_24_);}
	.st18{clip-path:url(#SVGID_26_);}
	.st19{clip-path:url(#SVGID_28_);}
	.st20{clip-path:url(#SVGID_30_);}
	.st21{clip-path:url(#SVGID_32_);}
	.st22{clip-path:url(#SVGID_34_);}
	.st23{clip-path:url(#SVGID_36_);}
	.st24{clip-path:url(#SVGID_38_);}
	.st25{clip-path:url(#SVGID_40_);}
	.st26{clip-path:url(#SVGID_42_);}
	.st27{clip-path:url(#SVGID_44_);}
	.st28{clip-path:url(#SVGID_46_);}
	.st29{clip-path:url(#SVGID_48_);}
	.st30{clip-path:url(#SVGID_50_);}
	.st31{clip-path:url(#SVGID_52_);}
	.st32{clip-path:url(#SVGID_54_);}
	.st33{fill:url(#SVGID_55_);stroke:#000000;stroke-width:2;stroke-miterlimit:10;}
	.st34{fill:url(#SVGID_56_);stroke:#000000;stroke-width:2;stroke-miterlimit:10;}
	.st35{clip-path:url(#SVGID_58_);}
	.st36{clip-path:url(#SVGID_60_);}
	.st37{clip-path:url(#SVGID_62_);}
	.st38{clip-path:url(#SVGID_64_);}
	.st39{clip-path:url(#SVGID_66_);}
	.st40{clip-path:url(#SVGID_68_);}
	.st41{clip-path:url(#SVGID_70_);}
	.st42{clip-path:url(#SVGID_72_);}
	.st43{clip-path:url(#SVGID_76_);fill:#FFAB00;}
</style>
<g id="Слой_2">
	<linearGradient id="SVGID_1_" gradientUnits="userSpaceOnUse" x1="426.4127" y1="1033.2" x2="683.7374" y2="285.8748">
		<stop  offset="0" style="stop-color:#097F1E"/>
		<stop  offset="0.2418" style="stop-color:#109A29"/>
		<stop  offset="0.5156" style="stop-color:#17B032"/>
		<stop  offset="0.7743" style="stop-color:#1BBE37"/>
		<stop  offset="1" style="stop-color:#1CC339"/>
	</linearGradient>
	<path class="st0" d="M104.97,635.81c-18.39,126.29-23.24,147.23-6.72,167.88c25.56,31.94,65.02,16.66,85.06,51.48
		c19.44,33.78-9.63,62.17,8.95,89.53c17.22,25.35,52.87,16.7,123.11,26.86c66.31,9.59,57.49,20.63,147.73,40.29
		c90.68,19.76,136.02,29.64,174.59,8.95c51.19-27.45,40.25-74.51,82.82-89.53c67.53-23.84,131.39,81.72,183.55,58.2
		c36.43-16.43,42.19-84.56,49.24-167.88c6.27-74.12-6.52-81.68,6.72-134.3c14.05-55.86,35.27-74.39,31.34-114.16
		c-2.92-29.6-21.13-50.76-49.24-87.3c-20-25.99-32.01-29.97-58.2-62.67c-20.02-25-28.88-41.41-35.81-51.48
		c-44.73-65-153.17-75.42-183.55-78.34c-20.29-1.95-42.6-2.47-232.79,42.53c-129.26,30.58-163.74,41.41-205.93,69.39
		c-27.63,18.32-67.7,45.57-94.01,96.25C120.08,524.14,119.66,534.9,104.97,635.81z"/>
</g>
<g id="Слой_1">
	<g id="куб_1_">
		<linearGradient id="SVGID_2_" gradientUnits="userSpaceOnUse" x1="535.6014" y1="483.7768" x2="527.991" y2="47.7752">
			<stop  offset="0.2098" style="stop-color:#5B7AD6"/>
			<stop  offset="0.5095" style="stop-color:#7C92D6"/>
			<stop  offset="0.7156" style="stop-color:#7E93D6"/>
			<stop  offset="0.7898" style="stop-color:#8599D7"/>
			<stop  offset="0.8428" style="stop-color:#90A2D9"/>
			<stop  offset="0.8856" style="stop-color:#A1B0DC"/>
			<stop  offset="0.9222" style="stop-color:#B7C1DF"/>
			<stop  offset="0.9541" style="stop-color:#D2D6E3"/>
			<stop  offset="0.9732" style="stop-color:#E6E6E6"/>
		</linearGradient>
		<polygon class="st1" points="531.8,483.84 246.24,265.77 531.79,47.71 817.35,265.78 		"/>
		<linearGradient id="SVGID_3_" gradientUnits="userSpaceOnUse" x1="389.0162" y1="811.7191" x2="389.0162" y2="386.7184">
			<stop  offset="0" style="stop-color:#294AAC"/>
			<stop  offset="0.2681" style="stop-color:#2E4FB0"/>
			<stop  offset="0.5752" style="stop-color:#3C5CBC"/>
			<stop  offset="0.9003" style="stop-color:#5272CF"/>
			<stop  offset="1" style="stop-color:#5B7AD6"/>
		</linearGradient>
		<polygon class="st2" points="531.8,919.97 246.24,701.9 246.24,265.78 531.8,483.85 		"/>
		<linearGradient id="SVGID_4_" gradientUnits="userSpaceOnUse" x1="531.7963" y1="592.8752" x2="817.3564" y2="592.8752">
			<stop  offset="0" style="stop-color:#0D2670"/>
			<stop  offset="0.3143" style="stop-color:#203678"/>
			<stop  offset="0.7079" style="stop-color:#31457F"/>
			<stop  offset="1" style="stop-color:#374A81"/>
		</linearGradient>
		<polygon class="st3" points="817.36,701.9 531.8,919.97 531.8,483.85 817.36,265.78 		"/>
		<polygon class="st4" points="553.58,874.29 553.58,500.57 798.28,313.71 798.28,687.43 		"/>
		<g>
			<g>
				<g class="st5">
					<defs>
						<polygon id="SVGID_5_" class="st5" points="462.74,243.1 493.39,225.29 586.85,279.25 556.2,297.06 						"/>
					</defs>
					<clipPath id="SVGID_6_">
						<use xlink:href="#SVGID_5_"  style="overflow:visible;"/>
					</clipPath>
					<g class="st6">
						<g>
							<g>
								<g>
									<path d="M502.15,231.17c-1.87-1.08-4.3-1.76-6.97-1.94c-3.11-0.2-6.18,0.31-8.63,1.44l-4.7,2.17
										c-2.44,1.13-3.99,2.75-4.33,4.55c-0.34,1.8,0.55,3.58,2.51,5.01l66.51,48.22c0.28,0.2,0.58,0.4,0.89,0.58
										c4.17,2.41,10.92,2.69,15.62,0.51l4.69-2.17c5.06-2.33,5.87-6.62,1.83-9.55l-66.52-48.22
										C502.77,231.54,502.47,231.35,502.15,231.17"/>
									<path d="M547.44,291.19c-0.31-0.18-0.61-0.37-0.89-0.58l-66.51-48.22c-1.96-1.42-2.85-3.2-2.51-5.01
										c0.35-1.81,1.89-3.42,4.33-4.55l4.7-2.17c2.44-1.13,5.51-1.64,8.63-1.44c2.67,0.18,5.1,0.86,6.97,1.94
										c0.32,0.18,0.63,0.38,0.91,0.58l66.52,48.22c4.04,2.93,3.23,7.22-1.83,9.55l-4.69,2.17
										C558.35,293.87,551.61,293.6,547.44,291.19 M502.84,230.75c-2.03-1.17-4.67-1.9-7.55-2.09c-3.38-0.22-6.71,0.33-9.36,1.56
										l-4.7,2.17c-5.48,2.53-6.37,7.18-1.98,10.37l66.52,48.22c0.31,0.22,0.63,0.43,0.97,0.63c4.53,2.61,11.83,2.91,16.93,0.55
										l4.7-2.17l-0.31-0.22l0.31,0.22c5.48-2.53,6.37-7.18,1.97-10.37l-66.51-48.22C503.52,231.16,503.19,230.95,502.84,230.75"
										/>
								</g>
							</g>
						</g>
					</g>
				</g>
			</g>
		</g>
		<polygon class="st7" points="806.23,375.13 785.05,391.3 785.05,358.95 806.23,342.77 		"/>
		<polygon class="st7" points="808.87,646.31 787.69,662.49 787.69,630.14 808.87,613.96 		"/>
		<g id="Shape_89_">
			<g>
				<g class="st5">
					<defs>
						<polygon id="SVGID_7_" class="st5" points="605.17,724.56 604.65,542.69 762.96,451.29 763.47,633.16 						"/>
					</defs>
					<clipPath id="SVGID_8_">
						<use xlink:href="#SVGID_7_"  style="overflow:visible;"/>
					</clipPath>
					<g class="st8">
						<g>
							<g>
								<g>
									<path d="M661.26,545.73c2.05-1.18,4-3.41,5.26-6.05c1.43-3.02,1.72-6.11,0.75-8.07l-2.41-5.27
										c6.19-5.75,12.6-10.53,19.01-14.23c6.41-3.7,12.82-6.32,19.03-7.73l-2.38,8.04c-0.96,3.07-0.65,5.81,0.79,7.18
										c1.26,1.18,3.22,1.15,5.27-0.03c0.3-0.17,0.6-0.37,0.9-0.59c2.37-1.74,4.37-4.72,5.23-7.78l2.38-8.05
										c11.45,0.42,20.84,5.77,26.98,15.38l-5.78,6.1c-2.23,2.28-3.8,5.5-4.12,8.41c-0.32,2.91,0.67,5.05,2.57,5.61
										c1.17,0.34,2.57,0.05,3.98-0.77c0.9-0.52,1.8-1.25,2.65-2.17l5.78-6.09c3.81,12.07,3.85,27.28,0.12,43.7l-5.8,0.59
										c-0.85,0.06-1.76,0.38-2.66,0.9c-1.41,0.82-2.81,2.14-3.97,3.82c-1.9,2.76-2.87,6.04-2.53,8.56
										c0.33,2.53,1.92,3.92,4.15,3.63l5.81-0.59c-6.07,16.66-15.4,32.82-26.81,46.43l-2.42-5.27c-0.88-2.06-2.89-2.72-5.26-1.73
										c-0.3,0.13-0.6,0.28-0.9,0.45c-2.05,1.18-4,3.41-5.26,6.05c-1.43,3.02-1.72,6.11-0.75,8.07l2.41,5.27
										c-6.19,5.75-12.6,10.53-19.01,14.23c-6.41,3.7-12.82,6.32-19.03,7.73l2.38-8.04c0.95-3.07,0.65-5.81-0.79-7.18
										c-1.26-1.18-3.23-1.15-5.28,0.04c-0.3,0.17-0.6,0.37-0.9,0.59c-2.37,1.74-4.37,4.72-5.23,7.78l-2.38,8.05
										c-11.45-0.42-20.84-5.77-26.98-15.38l5.78-6.1c2.23-2.28,3.8-5.5,4.12-8.41c0.32-2.9-0.67-5.05-2.58-5.61
										c-1.16-0.34-2.57-0.05-3.98,0.77c-0.9,0.52-1.8,1.25-2.65,2.17l-5.78,6.09c-3.81-12.07-3.86-27.28-0.12-43.7l5.8-0.59
										c0.85-0.06,1.75-0.37,2.65-0.89c1.41-0.82,2.81-2.15,3.97-3.83c1.9-2.76,2.87-6.03,2.54-8.57
										c-0.33-2.53-1.92-3.92-4.15-3.63l-5.81,0.59c6.07-16.66,15.4-32.83,26.81-46.45v0.01l2.42,5.27
										c0.88,2.06,2.89,2.72,5.26,1.73C660.66,546.05,660.96,545.9,661.26,545.73 M683.79,497
										c-31.48,18.17-60.58,56.68-72.91,98.33c-8.03,26.93-7.96,51.99,0.2,69.59c12.52,27.3,41.75,32.13,73.22,13.96
										c5.12-2.96,10.3-6.52,15.47-10.69c37-29.84,63.56-82.57,63.44-125.96c-0.12-43.37-26.9-65.32-63.95-52.4
										C694.09,491.62,688.9,494.04,683.79,497"/>
								</g>
							</g>
						</g>
					</g>
				</g>
			</g>
		</g>
		<g>
			<g id="Shape_81_">
				<g>
					<g class="st5">
						<defs>
							<polygon id="SVGID_9_" class="st5" points="653.15,657.26 652.89,566.34 731.91,520.71 732.17,611.64 							"/>
						</defs>
						<clipPath id="SVGID_10_">
							<use xlink:href="#SVGID_9_"  style="overflow:visible;"/>
						</clipPath>
						<g class="st9">
							<g>
								<g>
									<g>
										<path class="st10" d="M692.56,619.32c-10.35,5.97-20.18,4.61-24.43-4.63c-2.73-5.87-2.76-14.23-0.1-23.22
											c2.67-9,7.81-17.88,14.29-24.67c3.29-3.46,6.69-6.17,10.04-8.1c10.36-5.98,20.2-4.6,24.44,4.66
											c5.6,12.25-0.74,33.65-14.17,47.83C699.34,614.66,695.92,617.38,692.56,619.32 M692.36,543.55
											c-8.95,5.17-17.85,13.79-25.1,24.85c-13.42,20.49-18,44.5-11.27,59.14c6.2,13.43,20.67,16.15,36.67,6.91
											c0.01,0,0.01-0.01,0.02-0.01c17.42-10.09,32.74-32.08,37.72-54.15c4.98-22.08-1.54-39.04-16.07-41.77
											C707.64,537.26,699.98,539.14,692.36,543.55"/>
									</g>
								</g>
							</g>
						</g>
					</g>
				</g>
			</g>
			<g id="Shape_73_">
				<g>
					<g class="st5">
						<defs>
							<polygon id="SVGID_11_" class="st5" points="652.06,657.26 651.8,566.34 730.82,520.71 731.08,611.64 							"/>
						</defs>
						<clipPath id="SVGID_12_">
							<use xlink:href="#SVGID_11_"  style="overflow:visible;"/>
						</clipPath>
						<g class="st11">
							<g>
								<g>
									<g>
										<path class="st10" d="M691.47,619.32c-10.35,5.97-20.18,4.61-24.43-4.63c-2.73-5.87-2.76-14.23-0.1-23.22
											c2.67-9,7.81-17.88,14.29-24.67c3.29-3.46,6.69-6.17,10.04-8.1c10.36-5.98,20.2-4.6,24.44,4.66
											c5.6,12.25-0.74,33.66-14.17,47.83C698.25,614.66,694.83,617.38,691.47,619.32 M691.27,543.55
											c-8.95,5.17-17.85,13.79-25.1,24.85c-13.42,20.49-18,44.5-11.27,59.14c6.2,13.43,20.67,16.15,36.67,6.91
											c0.01,0,0.01-0.01,0.02-0.01c17.42-10.09,32.74-32.08,37.72-54.15c4.98-22.08-1.54-39.04-16.07-41.77
											C706.55,537.26,698.89,539.14,691.27,543.55"/>
									</g>
								</g>
							</g>
						</g>
					</g>
				</g>
			</g>
			<g id="Shape_65_">
				<g>
					<g class="st5">
						<defs>
							<polygon id="SVGID_13_" class="st5" points="652.06,656.17 651.8,565.25 730.82,519.62 731.08,610.55 							"/>
						</defs>
						<clipPath id="SVGID_14_">
							<use xlink:href="#SVGID_13_"  style="overflow:visible;"/>
						</clipPath>
						<g class="st12">
							<g>
								<g>
									<g>
										<path class="st10" d="M691.47,618.23c-10.35,5.97-20.18,4.61-24.43-4.63c-2.73-5.87-2.76-14.23-0.1-23.22
											c2.67-9,7.81-17.88,14.29-24.67c3.29-3.46,6.69-6.17,10.04-8.1c10.36-5.98,20.2-4.6,24.44,4.65
											c5.6,12.25-0.74,33.67-14.17,47.83C698.25,613.57,694.83,616.29,691.47,618.23 M691.27,542.46
											c-8.95,5.17-17.85,13.79-25.1,24.85c-13.42,20.49-18,44.5-11.27,59.14c6.2,13.43,20.67,16.15,36.67,6.91
											c0.01,0,0.01-0.01,0.02-0.01c17.42-10.09,32.74-32.08,37.72-54.15c4.98-22.08-1.54-39.04-16.07-41.77
											C706.55,536.17,698.89,538.06,691.27,542.46"/>
									</g>
								</g>
							</g>
						</g>
					</g>
				</g>
			</g>
			<g id="Shape_57_">
				<g>
					<g class="st5">
						<defs>
							<polygon id="SVGID_15_" class="st5" points="650.97,656.17 650.71,565.25 729.73,519.62 729.99,610.55 							"/>
						</defs>
						<clipPath id="SVGID_16_">
							<use xlink:href="#SVGID_15_"  style="overflow:visible;"/>
						</clipPath>
						<g class="st13">
							<g>
								<g>
									<g>
										<path class="st10" d="M690.38,618.23c-10.34,5.97-20.18,4.61-24.43-4.63c-2.73-5.87-2.76-14.23-0.1-23.22
											c2.67-9,7.81-17.88,14.29-24.67c3.29-3.46,6.69-6.17,10.04-8.1c10.36-5.98,20.2-4.6,24.44,4.65
											c5.6,12.25-0.74,33.67-14.18,47.84C697.16,613.57,693.74,616.29,690.38,618.23 M690.18,542.46
											c-8.95,5.17-17.85,13.79-25.1,24.85c-13.42,20.49-18,44.5-11.27,59.14c6.2,13.43,20.67,16.15,36.67,6.91
											c0.01,0,0.01-0.01,0.02-0.01c17.42-10.09,32.74-32.08,37.72-54.15c4.98-22.08-1.54-39.04-16.07-41.77
											C705.46,536.17,697.81,538.06,690.18,542.46"/>
									</g>
								</g>
							</g>
						</g>
					</g>
				</g>
			</g>
			<g id="Shape_38_">
				<g>
					<g class="st5">
						<defs>
							<polygon id="SVGID_17_" class="st5" points="650.97,655.09 650.71,564.16 729.73,518.54 729.99,609.46 							"/>
						</defs>
						<clipPath id="SVGID_18_">
							<use xlink:href="#SVGID_17_"  style="overflow:visible;"/>
						</clipPath>
						<g class="st14">
							<g>
								<g>
									<g>
										<path class="st10" d="M690.37,617.14c-10.34,5.97-20.18,4.6-24.42-4.63c-2.73-5.87-2.76-14.23-0.1-23.22
											c2.67-9,7.81-17.88,14.29-24.67c3.29-3.46,6.69-6.17,10.04-8.1c10.36-5.98,20.2-4.6,24.44,4.65
											c5.6,12.25-0.74,33.67-14.18,47.83C697.16,612.48,693.74,615.2,690.37,617.14 M690.18,541.37
											c-8.95,5.17-17.85,13.79-25.1,24.85c-13.42,20.49-18,44.5-11.27,59.14c6.2,13.43,20.67,16.15,36.67,6.91
											c0.01,0,0.01-0.01,0.02-0.01c17.42-10.09,32.74-32.08,37.72-54.15c4.98-22.08-1.54-39.04-16.07-41.77
											C705.46,535.08,697.81,536.97,690.18,541.37"/>
									</g>
								</g>
							</g>
						</g>
					</g>
				</g>
			</g>
			<g id="Shape_36_">
				<g>
					<g class="st5">
						<defs>
							<polygon id="SVGID_19_" class="st5" points="649.88,655.09 649.62,564.16 728.64,518.54 728.9,609.46 							"/>
						</defs>
						<clipPath id="SVGID_20_">
							<use xlink:href="#SVGID_19_"  style="overflow:visible;"/>
						</clipPath>
						<g class="st15">
							<g>
								<g>
									<g>
										<path class="st10" d="M689.29,617.14c-10.34,5.97-20.18,4.6-24.42-4.63c-2.73-5.87-2.76-14.23-0.1-23.22
											c2.67-9,7.81-17.88,14.29-24.67c3.29-3.46,6.69-6.17,10.04-8.1c10.36-5.98,20.2-4.6,24.43,4.66
											c5.61,12.25-0.74,33.66-14.16,47.82C696.07,612.48,692.65,615.2,689.29,617.14 M689.09,541.37
											c-8.95,5.17-17.85,13.79-25.1,24.85c-13.42,20.49-18,44.5-11.27,59.14c6.2,13.43,20.67,16.15,36.67,6.91
											c0.01,0,0.01-0.01,0.02-0.01c17.42-10.09,32.74-32.08,37.72-54.15c4.98-22.08-1.54-39.04-16.07-41.77
											C704.37,535.08,696.72,536.97,689.09,541.37"/>
									</g>
								</g>
							</g>
						</g>
					</g>
				</g>
			</g>
			<g id="Shape_34_">
				<g>
					<g class="st5">
						<defs>
							<polygon id="SVGID_21_" class="st5" points="649.88,654 649.62,563.07 728.64,517.45 728.9,608.37 							"/>
						</defs>
						<clipPath id="SVGID_22_">
							<use xlink:href="#SVGID_21_"  style="overflow:visible;"/>
						</clipPath>
						<g class="st16">
							<g>
								<g>
									<g>
										<path class="st10" d="M689.29,616.05c-10.34,5.97-20.18,4.6-24.42-4.63c-2.73-5.87-2.76-14.23-0.1-23.22
											c2.67-9,7.81-17.88,14.29-24.67c3.29-3.46,6.69-6.17,10.04-8.1c10.36-5.98,20.2-4.6,24.43,4.66
											c5.61,12.25-0.74,33.66-14.16,47.82C696.07,611.39,692.65,614.11,689.29,616.05 M689.09,540.28
											c-8.95,5.17-17.85,13.79-25.1,24.85c-13.42,20.49-18,44.5-11.27,59.13c6.2,13.43,20.67,16.15,36.67,6.91
											c0.01,0,0.01-0.01,0.02-0.01c17.42-10.09,32.74-32.08,37.72-54.15c4.98-22.08-1.54-39.04-16.07-41.77
											C704.37,533.99,696.72,535.88,689.09,540.28"/>
									</g>
								</g>
							</g>
						</g>
					</g>
				</g>
			</g>
			<g id="Shape_32_">
				<g>
					<g class="st5">
						<defs>
							<polygon id="SVGID_23_" class="st5" points="648.79,654 648.53,563.07 727.55,517.45 727.81,608.37 							"/>
						</defs>
						<clipPath id="SVGID_24_">
							<use xlink:href="#SVGID_23_"  style="overflow:visible;"/>
						</clipPath>
						<g class="st17">
							<g>
								<g>
									<g>
										<path class="st10" d="M688.2,616.05c-10.34,5.97-20.18,4.6-24.42-4.63c-2.73-5.87-2.76-14.23-0.1-23.22
											c2.67-9,7.81-17.88,14.29-24.67c3.29-3.46,6.69-6.17,10.04-8.1c10.36-5.98,20.2-4.6,24.44,4.65
											c5.6,12.25-0.74,33.67-14.18,47.83C694.98,611.39,691.56,614.11,688.2,616.05 M688,540.28
											c-8.95,5.17-17.85,13.79-25.1,24.85c-13.42,20.49-18,44.5-11.27,59.13c6.2,13.43,20.67,16.15,36.67,6.91
											c0.01,0,0.01-0.01,0.02-0.01c17.42-10.09,32.74-32.08,37.72-54.15c4.98-22.08-1.54-39.04-16.07-41.77
											C703.28,533.99,695.63,535.88,688,540.28"/>
									</g>
								</g>
							</g>
						</g>
					</g>
				</g>
			</g>
			<g id="Shape_30_">
				<g>
					<g class="st5">
						<defs>
							<polygon id="SVGID_25_" class="st5" points="648.79,652.91 648.53,561.98 727.55,516.36 727.81,607.28 							"/>
						</defs>
						<clipPath id="SVGID_26_">
							<use xlink:href="#SVGID_25_"  style="overflow:visible;"/>
						</clipPath>
						<g class="st18">
							<g>
								<g>
									<g>
										<path class="st10" d="M688.2,614.96c-10.34,5.97-20.18,4.6-24.42-4.63c-2.73-5.87-2.76-14.23-0.1-23.22
											c2.67-9,7.81-17.88,14.29-24.67c3.29-3.46,6.69-6.17,10.04-8.1c10.36-5.98,20.2-4.6,24.44,4.65
											c5.6,12.25-0.74,33.67-14.18,47.83C694.98,610.3,691.56,613.02,688.2,614.96 M688,539.19
											c-8.95,5.17-17.85,13.79-25.1,24.85c-13.42,20.49-18,44.5-11.27,59.13c6.2,13.43,20.67,16.15,36.67,6.91
											c0.01,0,0.01-0.01,0.02-0.01c17.42-10.09,32.74-32.08,37.72-54.15c4.98-22.08-1.54-39.04-16.07-41.77
											C703.28,532.9,695.63,534.79,688,539.19"/>
									</g>
								</g>
							</g>
						</g>
					</g>
				</g>
			</g>
			<g id="Shape_28_">
				<g>
					<g class="st5">
						<defs>
							<polygon id="SVGID_27_" class="st5" points="647.7,652.91 647.44,561.98 726.46,516.36 726.72,607.28 							"/>
						</defs>
						<clipPath id="SVGID_28_">
							<use xlink:href="#SVGID_27_"  style="overflow:visible;"/>
						</clipPath>
						<g class="st19">
							<g>
								<g>
									<g>
										<path class="st10" d="M687.11,614.96c-10.34,5.97-20.18,4.6-24.42-4.63c-2.73-5.87-2.76-14.23-0.1-23.22
											c2.67-9,7.81-17.88,14.29-24.67c3.29-3.46,6.69-6.17,10.04-8.1c10.36-5.98,20.2-4.6,24.43,4.66
											c5.61,12.25-0.74,33.66-14.17,47.83C693.89,610.3,690.47,613.02,687.11,614.96 M686.91,539.19
											c-8.95,5.17-17.85,13.79-25.1,24.85c-13.42,20.49-18,44.5-11.27,59.13c6.2,13.43,20.67,16.15,36.67,6.92
											c0.01,0,0.01-0.01,0.02-0.01c17.43-10.09,32.75-32.08,37.72-54.16c4.98-22.08-1.54-39.04-16.07-41.77
											C702.2,532.9,694.54,534.79,686.91,539.19"/>
									</g>
								</g>
							</g>
						</g>
					</g>
				</g>
			</g>
			<g id="Shape_26_">
				<g>
					<g class="st5">
						<defs>
							<polygon id="SVGID_29_" class="st5" points="647.7,651.82 647.44,560.89 726.46,515.27 726.72,606.2 							"/>
						</defs>
						<clipPath id="SVGID_30_">
							<use xlink:href="#SVGID_29_"  style="overflow:visible;"/>
						</clipPath>
						<g class="st20">
							<g>
								<g>
									<g>
										<path class="st10" d="M687.11,613.88c-10.34,5.97-20.18,4.6-24.42-4.63c-2.73-5.87-2.76-14.23-0.1-23.22
											c2.67-9,7.81-17.88,14.29-24.67c3.29-3.46,6.69-6.17,10.04-8.1c10.36-5.98,20.2-4.6,24.43,4.66
											c5.61,12.25-0.74,33.66-14.17,47.83C693.89,609.21,690.47,611.93,687.11,613.88 M686.91,538.1
											c-8.95,5.17-17.85,13.79-25.1,24.85c-13.42,20.49-18,44.5-11.27,59.13c6.2,13.43,20.67,16.15,36.67,6.92
											c0.01,0,0.01-0.01,0.02-0.01c17.43-10.09,32.75-32.09,37.72-54.16c4.98-22.08-1.54-39.04-16.07-41.77
											C702.2,531.81,694.54,533.7,686.91,538.1"/>
									</g>
								</g>
							</g>
						</g>
					</g>
				</g>
			</g>
			<g id="Shape_24_">
				<g>
					<g class="st5">
						<defs>
							<polygon id="SVGID_31_" class="st5" points="646.61,651.82 646.35,560.89 725.37,515.27 725.63,606.2 							"/>
						</defs>
						<clipPath id="SVGID_32_">
							<use xlink:href="#SVGID_31_"  style="overflow:visible;"/>
						</clipPath>
						<g class="st21">
							<g>
								<g>
									<g>
										<path class="st10" d="M686.02,613.88c-10.34,5.97-20.17,4.6-24.42-4.63c-2.73-5.87-2.76-14.23-0.1-23.22
											c2.67-9,7.81-17.88,14.29-24.67c3.29-3.46,6.69-6.17,10.04-8.1c10.36-5.98,20.2-4.6,24.43,4.66
											c5.61,12.25-0.74,33.66-14.17,47.83C692.8,609.21,689.38,611.94,686.02,613.88 M685.83,538.1
											c-8.95,5.17-17.85,13.79-25.1,24.85c-13.42,20.49-18,44.5-11.27,59.13c6.2,13.43,20.67,16.15,36.67,6.92
											c0.01,0,0.01-0.01,0.02-0.01c17.43-10.09,32.75-32.09,37.72-54.16c4.98-22.08-1.54-39.04-16.07-41.77
											C701.11,531.81,693.45,533.7,685.83,538.1"/>
									</g>
								</g>
							</g>
						</g>
					</g>
				</g>
			</g>
			<g id="Shape_22_">
				<g>
					<g class="st5">
						<defs>
							<polygon id="SVGID_33_" class="st5" points="646.61,650.73 646.35,559.8 725.37,514.18 725.63,605.11 							"/>
						</defs>
						<clipPath id="SVGID_34_">
							<use xlink:href="#SVGID_33_"  style="overflow:visible;"/>
						</clipPath>
						<g class="st22">
							<g>
								<g>
									<g>
										<path class="st10" d="M686.02,612.79c-10.34,5.97-20.18,4.6-24.42-4.63c-2.73-5.87-2.76-14.23-0.1-23.22
											c2.67-9,7.81-17.88,14.29-24.67c3.29-3.46,6.69-6.17,10.04-8.1c10.36-5.98,20.2-4.6,24.43,4.66
											c5.61,12.25-0.74,33.66-14.17,47.83C692.8,608.12,689.38,610.84,686.02,612.79 M685.83,537.01
											c-8.95,5.17-17.86,13.79-25.11,24.86c-13.42,20.49-18,44.5-11.27,59.13c6.2,13.43,20.67,16.15,36.67,6.92
											c0.01,0,0.01-0.01,0.02-0.01c17.43-10.09,32.75-32.09,37.72-54.16c4.98-22.08-1.54-39.04-16.07-41.78
											C701.11,530.72,693.45,532.61,685.83,537.01"/>
									</g>
								</g>
							</g>
						</g>
					</g>
				</g>
			</g>
			<g id="Shape_20_">
				<g>
					<g class="st5">
						<defs>
							<polygon id="SVGID_35_" class="st5" points="645.52,650.73 645.26,559.8 724.29,514.18 724.54,605.11 							"/>
						</defs>
						<clipPath id="SVGID_36_">
							<use xlink:href="#SVGID_35_"  style="overflow:visible;"/>
						</clipPath>
						<g class="st23">
							<g>
								<g>
									<g>
										<path class="st10" d="M684.93,612.79c-10.34,5.97-20.18,4.6-24.42-4.63c-2.73-5.87-2.76-14.23-0.1-23.22
											c2.67-9,7.81-17.88,14.29-24.67c3.29-3.46,6.69-6.17,10.04-8.1c10.36-5.98,20.2-4.6,24.43,4.66
											c5.61,12.25-0.74,33.66-14.17,47.83C691.71,608.12,688.29,610.84,684.93,612.79 M684.74,537.01
											c-8.95,5.17-17.86,13.79-25.11,24.86c-13.42,20.49-18,44.5-11.27,59.13c6.2,13.43,20.67,16.15,36.67,6.92
											c0.01,0,0.01-0.01,0.02-0.01c17.43-10.09,32.75-32.09,37.72-54.16c4.98-22.08-1.54-39.04-16.07-41.78
											C700.02,530.72,692.36,532.61,684.74,537.01"/>
									</g>
								</g>
							</g>
						</g>
					</g>
				</g>
			</g>
			<g id="Shape_18_">
				<g>
					<g class="st5">
						<defs>
							<polygon id="SVGID_37_" class="st5" points="645.52,649.64 645.26,558.71 724.29,513.09 724.54,604.02 							"/>
						</defs>
						<clipPath id="SVGID_38_">
							<use xlink:href="#SVGID_37_"  style="overflow:visible;"/>
						</clipPath>
						<g class="st24">
							<g>
								<g>
									<g>
										<path class="st10" d="M684.93,611.7c-10.34,5.97-20.18,4.6-24.42-4.63c-2.73-5.87-2.76-14.23-0.1-23.22
											c2.67-8.99,7.81-17.87,14.29-24.67c3.28-3.46,6.69-6.16,10.04-8.09c10.36-5.98,20.21-4.6,24.44,4.66
											c5.61,12.25-0.74,33.66-14.17,47.83C691.71,607.04,688.29,609.75,684.93,611.7 M684.74,535.92
											c-8.95,5.17-17.86,13.79-25.11,24.86c-13.42,20.48-18,44.5-11.27,59.13c6.2,13.43,20.67,16.15,36.67,6.92
											c0.01,0,0.01-0.01,0.02-0.01c17.43-10.09,32.75-32.09,37.72-54.16c4.98-22.08-1.54-39.04-16.07-41.78
											C700.02,529.63,692.36,531.52,684.74,535.92"/>
									</g>
								</g>
							</g>
						</g>
					</g>
				</g>
			</g>
			<g id="Shape_16_">
				<g>
					<g class="st5">
						<defs>
							<polygon id="SVGID_39_" class="st5" points="644.43,649.64 644.18,558.71 723.2,513.09 723.45,604.02 							"/>
						</defs>
						<clipPath id="SVGID_40_">
							<use xlink:href="#SVGID_39_"  style="overflow:visible;"/>
						</clipPath>
						<g class="st25">
							<g>
								<g>
									<g>
										<path class="st10" d="M683.84,611.7c-10.34,5.97-20.18,4.6-24.42-4.63c-2.73-5.87-2.76-14.23-0.1-23.22
											c2.67-8.99,7.81-17.87,14.29-24.67c3.28-3.46,6.69-6.16,10.04-8.09c10.36-5.98,20.21-4.6,24.44,4.66
											c5.61,12.25-0.74,33.66-14.17,47.83C690.62,607.04,687.2,609.75,683.84,611.7 M683.65,535.92
											c-8.95,5.17-17.86,13.79-25.11,24.86c-13.42,20.48-18,44.5-11.27,59.13c6.2,13.43,20.67,16.15,36.67,6.92
											c0.01,0,0.01-0.01,0.02-0.01c17.42-10.09,32.75-32.09,37.72-54.16c4.98-22.08-1.54-39.04-16.07-41.78
											C698.93,529.63,691.28,531.52,683.65,535.92"/>
									</g>
								</g>
							</g>
						</g>
					</g>
				</g>
			</g>
			<g id="Shape_14_">
				<g>
					<g class="st5">
						<defs>
							<polygon id="SVGID_41_" class="st5" points="644.43,648.55 644.18,557.62 723.2,512 723.45,602.93 							"/>
						</defs>
						<clipPath id="SVGID_42_">
							<use xlink:href="#SVGID_41_"  style="overflow:visible;"/>
						</clipPath>
						<g class="st26">
							<g>
								<g>
									<g>
										<path class="st10" d="M683.84,610.61c-10.34,5.97-20.18,4.6-24.42-4.63c-2.73-5.87-2.76-14.23-0.1-23.22
											c2.67-8.99,7.81-17.87,14.29-24.67c3.28-3.46,6.69-6.16,10.04-8.09c10.36-5.98,20.21-4.6,24.44,4.66
											c5.61,12.25-0.74,33.66-14.17,47.83C690.62,605.95,687.2,608.67,683.84,610.61 M683.65,534.83
											c-8.95,5.17-17.86,13.79-25.11,24.86c-13.42,20.48-18,44.5-11.27,59.13c6.2,13.43,20.67,16.15,36.67,6.92
											c0.01,0,0.01-0.01,0.02-0.01c17.42-10.1,32.75-32.09,37.72-54.16c4.98-22.08-1.54-39.04-16.07-41.78
											C698.93,528.54,691.28,530.43,683.65,534.83"/>
									</g>
								</g>
							</g>
						</g>
					</g>
				</g>
			</g>
			<g id="Shape_12_">
				<g>
					<g class="st5">
						<defs>
							<polygon id="SVGID_43_" class="st5" points="643.34,648.55 643.09,557.62 722.11,512 722.37,602.93 							"/>
						</defs>
						<clipPath id="SVGID_44_">
							<use xlink:href="#SVGID_43_"  style="overflow:visible;"/>
						</clipPath>
						<g class="st27">
							<g>
								<g>
									<g>
										<path class="st10" d="M682.75,610.61c-10.34,5.97-20.18,4.6-24.42-4.63c-2.73-5.87-2.76-14.23-0.1-23.22
											c2.67-8.99,7.81-17.87,14.29-24.67c3.28-3.46,6.69-6.16,10.04-8.09c10.36-5.98,20.21-4.6,24.44,4.66
											c5.6,12.25-0.74,33.66-14.17,47.83C689.53,605.95,686.12,608.67,682.75,610.61 M682.56,534.83
											c-8.95,5.17-17.86,13.79-25.11,24.86c-13.42,20.48-18,44.5-11.27,59.13c6.2,13.43,20.67,16.15,36.67,6.92
											c0.01,0,0.01-0.01,0.02-0.01c17.42-10.1,32.75-32.09,37.72-54.16c4.98-22.08-1.54-39.04-16.07-41.78
											C697.84,528.54,690.19,530.43,682.56,534.83"/>
									</g>
								</g>
							</g>
						</g>
					</g>
				</g>
			</g>
			<g id="Shape_10_">
				<g>
					<g class="st5">
						<defs>
							<polygon id="SVGID_45_" class="st5" points="643.34,647.46 643.09,556.53 722.11,510.91 722.37,601.84 							"/>
						</defs>
						<clipPath id="SVGID_46_">
							<use xlink:href="#SVGID_45_"  style="overflow:visible;"/>
						</clipPath>
						<g class="st28">
							<g>
								<g>
									<g>
										<path class="st10" d="M682.75,609.52c-10.34,5.97-20.18,4.6-24.42-4.63c-2.73-5.87-2.76-14.23-0.1-23.22
											c2.67-8.99,7.81-17.87,14.29-24.67c3.28-3.46,6.69-6.16,10.04-8.09c10.36-5.98,20.21-4.6,24.44,4.66
											c5.6,12.25-0.74,33.66-14.17,47.83C689.53,604.86,686.12,607.58,682.75,609.52 M682.56,533.74
											c-8.95,5.17-17.86,13.79-25.11,24.86c-13.42,20.48-18,44.5-11.27,59.13c6.2,13.43,20.67,16.15,36.67,6.92
											c0.01,0,0.01-0.01,0.02-0.01c17.42-10.1,32.75-32.09,37.72-54.16c4.98-22.08-1.54-39.04-16.07-41.78
											C697.84,527.45,690.19,529.34,682.56,533.74"/>
									</g>
								</g>
							</g>
						</g>
					</g>
				</g>
			</g>
			<g id="Shape_8_">
				<g>
					<g class="st5">
						<defs>
							<polygon id="SVGID_47_" class="st5" points="642.26,647.46 642,556.53 721.02,510.91 721.28,601.84 							"/>
						</defs>
						<clipPath id="SVGID_48_">
							<use xlink:href="#SVGID_47_"  style="overflow:visible;"/>
						</clipPath>
						<g class="st29">
							<g>
								<g>
									<g>
										<path class="st10" d="M681.66,609.52c-10.34,5.97-20.18,4.6-24.42-4.63c-2.73-5.87-2.76-14.23-0.1-23.22
											c2.67-8.99,7.81-17.87,14.29-24.67c3.28-3.46,6.69-6.16,10.04-8.09c10.36-5.98,20.21-4.6,24.44,4.66
											c5.6,12.25-0.74,33.66-14.17,47.83C688.44,604.86,685.03,607.58,681.66,609.52 M681.47,533.74
											c-8.95,5.17-17.86,13.79-25.11,24.86c-13.42,20.48-18,44.5-11.27,59.13c6.2,13.43,20.67,16.15,36.67,6.92
											c0.01,0,0.01-0.01,0.02-0.01c17.42-10.1,32.74-32.09,37.72-54.16c4.98-22.08-1.54-39.04-16.07-41.78
											C696.75,527.45,689.1,529.34,681.47,533.74"/>
									</g>
								</g>
							</g>
						</g>
					</g>
				</g>
			</g>
			<g id="Shape_6_">
				<g>
					<g class="st5">
						<defs>
							<polygon id="SVGID_49_" class="st5" points="642.26,646.37 642,555.44 721.02,509.82 721.28,600.75 							"/>
						</defs>
						<clipPath id="SVGID_50_">
							<use xlink:href="#SVGID_49_"  style="overflow:visible;"/>
						</clipPath>
						<g class="st30">
							<g>
								<g>
									<g>
										<path class="st10" d="M681.66,608.43c-10.34,5.97-20.18,4.6-24.42-4.63c-2.73-5.87-2.76-14.23-0.1-23.22
											c2.67-8.99,7.81-17.87,14.29-24.67c3.28-3.46,6.69-6.16,10.04-8.09c10.36-5.98,20.21-4.6,24.44,4.66
											c5.6,12.25-0.74,33.66-14.17,47.83C688.44,603.77,685.03,606.49,681.66,608.43 M681.47,532.65
											c-8.95,5.17-17.86,13.79-25.11,24.86c-13.42,20.48-18,44.5-11.27,59.13c6.2,13.43,20.67,16.15,36.67,6.92
											c0.01,0,0.01-0.01,0.02-0.01c17.42-10.09,32.74-32.09,37.72-54.16c4.98-22.08-1.54-39.04-16.07-41.78
											C696.75,526.36,689.1,528.25,681.47,532.65"/>
									</g>
								</g>
							</g>
						</g>
					</g>
				</g>
			</g>
			<g id="Shape_4_">
				<g>
					<g class="st5">
						<defs>
							<polygon id="SVGID_51_" class="st5" points="641.17,646.37 640.91,555.44 719.93,509.82 720.19,600.75 							"/>
						</defs>
						<clipPath id="SVGID_52_">
							<use xlink:href="#SVGID_51_"  style="overflow:visible;"/>
						</clipPath>
						<g class="st31">
							<g>
								<g>
									<g>
										<path class="st10" d="M680.57,608.43c-10.34,5.97-20.18,4.6-24.42-4.63c-2.73-5.87-2.76-14.23-0.1-23.22
											c2.67-8.99,7.81-17.87,14.29-24.67c3.28-3.46,6.69-6.16,10.04-8.09c10.36-5.98,20.21-4.6,24.44,4.66
											c5.6,12.25-0.74,33.66-14.17,47.83C687.35,603.77,683.94,606.49,680.57,608.43 M680.39,532.65
											c-8.95,5.17-17.86,13.79-25.11,24.86c-13.42,20.48-18,44.5-11.27,59.13c6.2,13.43,20.67,16.15,36.67,6.92
											c0.01,0,0.01-0.01,0.02-0.01c17.42-10.09,32.74-32.09,37.72-54.16c4.98-22.08-1.55-39.04-16.07-41.78
											C695.66,526.36,688.01,528.25,680.39,532.65"/>
									</g>
								</g>
							</g>
						</g>
					</g>
				</g>
			</g>
		</g>
		<g id="Shape_2_">
			<g>
				<g class="st5">
					<defs>
						<polygon id="SVGID_53_" class="st5" points="653.15,658.35 652.89,567.43 731.91,521.8 732.17,612.73 						"/>
					</defs>
					<clipPath id="SVGID_54_">
						<use xlink:href="#SVGID_53_"  style="overflow:visible;"/>
					</clipPath>
					<g class="st32">
						<g>
							<g>
								<g>
									<path d="M692.56,620.41c-10.35,5.97-20.18,4.61-24.43-4.63c-2.73-5.87-2.76-14.23-0.1-23.22c2.67-9,7.81-17.88,14.29-24.67
										c3.29-3.46,6.69-6.17,10.04-8.1c10.36-5.98,20.2-4.6,24.44,4.66c5.6,12.25-0.74,33.65-14.17,47.83
										C699.34,615.75,695.92,618.47,692.56,620.41 M692.36,544.63c-8.95,5.17-17.86,13.79-25.1,24.86
										c-13.42,20.48-18,44.5-11.27,59.13c6.2,13.43,20.67,16.15,36.67,6.91c0.01,0,0.01-0.01,0.02-0.01
										c17.42-10.09,32.74-32.08,37.72-54.15c4.98-22.08-1.54-39.04-16.07-41.77C707.64,538.34,699.99,540.23,692.36,544.63"/>
								</g>
							</g>
						</g>
					</g>
				</g>
			</g>
		</g>
	</g>
	<g>
		
			<linearGradient id="SVGID_55_" gradientUnits="userSpaceOnUse" x1="976.7703" y1="994.9742" x2="1102.8947" y2="994.9742" gradientTransform="matrix(-0.1403 -0.9901 -0.9901 0.1403 1667.3215 1105.7855)">
			<stop  offset="0" style="stop-color:#FF7300"/>
			<stop  offset="0.1213" style="stop-color:#FD7600"/>
			<stop  offset="0.221" style="stop-color:#F78001"/>
			<stop  offset="0.3127" style="stop-color:#ED9202"/>
			<stop  offset="0.3615" style="stop-color:#E59E03"/>
			<stop  offset="0.8652" style="stop-color:#E5C500"/>
			<stop  offset="0.9944" style="stop-color:#BF6F00"/>
		</linearGradient>
		<path class="st33" d="M523.5,147.85c16.68-1.54,35.54,24.97,42.11,59.2s-1.61,63.24-18.27,64.77
			c-16.68,1.54-35.54-24.97-42.11-59.2C498.64,178.4,506.83,149.39,523.5,147.85z"/>
		
			<linearGradient id="SVGID_56_" gradientUnits="userSpaceOnUse" x1="1002.5659" y1="1003.8468" x2="1128.6902" y2="1003.8468" gradientTransform="matrix(-0.1403 -0.9901 -0.9901 0.1403 1667.3215 1105.7855)">
			<stop  offset="0" style="stop-color:#FF7300"/>
			<stop  offset="0.4526" style="stop-color:#EB9402"/>
			<stop  offset="0.5721" style="stop-color:#E59E03"/>
			<stop  offset="0.6638" style="stop-color:#E5A303"/>
			<stop  offset="0.7765" style="stop-color:#E5B201"/>
			<stop  offset="0.8728" style="stop-color:#E5C500"/>
		</linearGradient>
		<path class="st34" d="M514.66,148.66c16.68-1.54,35.54,24.97,42.11,59.2c6.58,34.23-1.61,63.24-18.27,64.77
			c-16.68,1.54-35.54-24.97-42.11-59.2C489.8,179.22,497.98,150.21,514.66,148.66z"/>
		<g>
			<g>
				<g class="st5">
					<g>
						<defs>
							<polygon id="SVGID_57_" points="525.8,258.63 493.32,242.57 522.14,167.55 554.63,183.61 							"/>
						</defs>
						<clipPath id="SVGID_58_">
							<use xlink:href="#SVGID_57_"  style="overflow:visible;"/>
						</clipPath>
						<g class="st35">
							<g>
								<g>
									<g>
										<g>
											<g>
												<defs>
													<polyline id="SVGID_59_" points="531.42,244.01 494.02,242.92 516.52,182.17 553.91,183.24 531.42,244.01 
																											"/>
												</defs>
												<clipPath id="SVGID_60_">
													<use xlink:href="#SVGID_59_"  style="overflow:visible;"/>
												</clipPath>
												<g class="st36">
													<g>
														<defs>
															<polyline id="SVGID_61_" points="537.92,226.44 498.25,243.04 510.01,199.75 549.67,183.12 537.92,226.44 
																															"/>
														</defs>
														<clipPath id="SVGID_62_">
															<use xlink:href="#SVGID_61_"  style="overflow:visible;"/>
														</clipPath>
														<g class="st37">
															<g>
																<defs>
																	<path id="SVGID_63_" d="M536.16,188.78l-5.7,7.25l3.14,5.43l-1.78,2.28l-2.58-4.44c-1.72-2.97-4.06-4.04-6.98-3.23
																		c-2.91,0.82-6.07,3.4-9.45,7.68c-2.18,2.78-3.9,5.65-5.16,8.6c-1.28,2.94-1.95,5.74-2.09,8.33
																		c-0.1,2.59,0.39,4.81,1.48,6.67l5.59,9.66l16.45-20.92l2.01,3.47l5.71-7.22l-2-3.48l1.78-2.28l2,3.48l5.7-7.25
																		l-2.01-3.47l4.57-5.82l-2.99-5.11l-4.56,5.8L536.16,188.78 M526.14,211l-10.7,13.61l-2.68-4.6
																		c-0.72-1.3-0.8-2.96-0.21-4.97c0.57-2.02,1.7-4.05,3.35-6.14c3.46-4.42,6.03-5.19,7.67-2.31L526.14,211"/>
																</defs>
																<clipPath id="SVGID_64_">
																	<use xlink:href="#SVGID_63_"  style="overflow:visible;"/>
																</clipPath>
																<g class="st38">
																	<g>
																		<defs>
																			<path id="SVGID_65_" d="M512.42,215.45c-0.44,1.76-0.36,3.23,0.26,4.43
																				C512.06,218.68,511.98,217.2,512.42,215.45 M512.47,215.27l0.07-0.26c0.57-2.02,1.7-4.05,3.35-6.14
																				c1.59-2.01,2.95-3.26,4.16-3.76c-1.19,0.51-2.57,1.75-4.16,3.76c-1.65,2.09-2.76,4.13-3.35,6.14L512.47,215.27
																				 M506.75,214.73c0.23-0.69,0.51-1.42,0.8-2.14C507.26,213.31,506.99,214.05,506.75,214.73 M506.33,216.12
																				l0.07-0.23L506.33,216.12"/>
																		</defs>
																		<clipPath id="SVGID_66_">
																			<use xlink:href="#SVGID_65_"  style="overflow:visible;"/>
																		</clipPath>
																		<g class="st39">
																			<g>
																				<defs>
																					<polyline id="SVGID_67_" points="521.75,203.33 517.4,219.38 503.03,225.38 507.4,209.38 521.75,203.33 
																																											"/>
																				</defs>
																				<clipPath id="SVGID_68_">
																					<use xlink:href="#SVGID_67_"  style="overflow:visible;"/>
																				</clipPath>
																				<g class="st40">
																					<g>
																						<defs>
																							<path id="SVGID_69_" d="M519.79,205.24l0.26-0.13L519.79,205.24 M519.67,205.3l0.09-0.06L519.67,205.3
																								 M519.57,205.35l0.04-0.02L519.57,205.35 M515.62,209.21l0.26-0.34L515.62,209.21 M514.55,210.76
																								c0.33-0.5,0.69-1.04,1.07-1.55C515.23,209.74,514.87,210.24,514.55,210.76 M512.15,217.01l-0.01,0.04
																								L512.15,217.01 M512.19,216.68l0,0.07L512.19,216.68 M512.24,216.34l-0.01,0.11L512.24,216.34 M512.3,215.95
																								l-0.04,0.26L512.3,215.95 M512.42,215.45l-0.11,0.49L512.42,215.45 M512.6,214.79l-0.07,0.23L512.6,214.79
																								 M512.84,214.08c0.41-1.09,0.98-2.18,1.7-3.31c-0.31,0.47-0.58,0.92-0.83,1.38c-0.3,0.55-0.54,1.09-0.76,1.6
																								L512.84,214.08 M512.84,214.08l-0.04,0.12L512.84,214.08 M506.79,214.64l-0.04,0.09L506.79,214.64"/>
																						</defs>
																						<clipPath id="SVGID_70_">
																							<use xlink:href="#SVGID_69_"  style="overflow:visible;"/>
																						</clipPath>
																						<g class="st41">
																							<g>
																								<defs>
																									<polyline id="SVGID_71_" points="522.23,202.93 516.59,218.11 504.29,217.74 509.92,202.56 522.23,202.93 
																																																			"/>
																								</defs>
																								<clipPath id="SVGID_72_">
																									<use xlink:href="#SVGID_71_"  style="overflow:visible;"/>
																								</clipPath>
																								<g class="st42">
																									<g>
																										<defs>
																											<path id="SVGID_73_" d="M515.41,209.51L515.41,209.51L515.41,209.51 M515.39,209.54L515.39,209.54
																												L515.39,209.54 M515.29,209.68C515.3,209.67,515.3,209.67,515.29,209.68
																												C515.3,209.67,515.3,209.67,515.29,209.68 M514.06,211.55L514.06,211.55c0.13-0.22,0.26-0.43,0.39-0.65
																												l0,0C514.32,211.11,514.19,211.33,514.06,211.55 M513.89,211.83L513.89,211.83
																												c0.04-0.09,0.1-0.17,0.15-0.25l0,0C513.98,211.66,513.94,211.75,513.89,211.83"/>
																										</defs>
																										<clipPath id="SVGID_74_">
																											<use xlink:href="#SVGID_73_"  style="overflow:visible;"/>
																										</clipPath>
																									</g>
																								</g>
																							</g>
																						</g>
																					</g>
																				</g>
																			</g>
																		</g>
																	</g>
																</g>
															</g>
														</g>
													</g>
													<g>
														<defs>
															<polyline id="SVGID_75_" points="537.92,226.44 498.25,243.04 510.01,199.75 549.67,183.12 537.92,226.44 
																															"/>
														</defs>
														<clipPath id="SVGID_76_">
															<use xlink:href="#SVGID_75_"  style="overflow:visible;"/>
														</clipPath>
														<path class="st43" d="M526.14,211l-10.7,13.61l-2.68-4.6l-0.06-0.11c-0.62-1.2-0.69-2.68-0.26-4.43l0.05-0.18
															l0.07-0.26c0.08-0.32,0.2-0.62,0.31-0.94l0.13-0.31c0.21-0.54,0.46-1.05,0.76-1.6c0.25-0.46,0.51-0.92,0.83-1.38
															c0.39-0.62,0.84-1.26,1.33-1.88c1.59-2.01,2.95-3.26,4.16-3.76c1.44-0.59,2.62-0.11,3.53,1.45L526.14,211
															 M507.31,213.2c-0.08,0.21-0.14,0.4-0.22,0.61c-0.1,0.28-0.21,0.56-0.3,0.86l-0.04,0.09
															c-0.13,0.38-0.26,0.77-0.36,1.15l-0.07,0.23c-0.41,1.59-0.67,3.09-0.74,4.56c-0.1,2.59,0.39,4.81,1.48,6.67l5.59,9.66
															l0,0l16.44-20.91l2.01,3.47l5.71-7.22l-2-3.48l1.78-2.28l2,3.48l5.7-7.25l-2.01-3.47l4.56-5.8l0.01-0.02l0,0
															l-2.97-5.1l-4.56,5.8l-3.17-5.43l-5.7,7.25l3.14,5.43l-1.78,2.28l-2.58-4.44c-1.72-2.97-4.06-4.04-6.98-3.23
															c-2.91,0.82-6.07,3.4-9.45,7.68c-2.18,2.78-3.9,5.65-5.16,8.6l-0.11,0.23C507.46,212.79,507.38,213,507.31,213.2"/>
													</g>
												</g>
											</g>
										</g>
									</g>
								</g>
							</g>
						</g>
					</g>
				</g>
			</g>
		</g>
	</g>
</g>
</svg>
