<?xml version="1.0" ?><!DOCTYPE svg  PUBLIC '-//W3C//DTD SVG 1.1//EN'  'http://www.w3.org/Graphics/SVG/1.1/DTD/svg11.dtd'><svg enable-background="new 0 0 50 50" height="50px" id="Layer_1" version="1.1" viewBox="0 0 50 50" width="50px" xml:space="preserve" xmlns="http://www.w3.org/2000/svg" xmlns:xlink="http://www.w3.org/1999/xlink"><g><g><path d="M50,45.235C50,47.867,47.867,50,45.235,50H4.765C2.133,50,0,47.867,0,45.235V4.765     C0,2.133,2.133,0,4.765,0h40.47C47.867,0,50,2.133,50,4.765V45.235z" fill="#2899C0"/><path d="M37.499,21.53l-4.001-1.061l-7.245-7.288l-7.632,8.535l-4.85,1.879l2.818,2.802l2.608,2.054l-1.587,7.601     L30.741,50h14.951c2.632,0,4.776-2.5,4.307-5.307V34.265L37.499,21.53z" opacity="0.2"/><path d="M24.062,13.988c0.773-1.567,2.039-1.567,2.812,0l1.519,3.078c0.773,1.567,2.82,3.054,4.549,3.305     l3.397,0.494c1.729,0.251,2.12,1.455,0.869,2.674l-2.458,2.396c-1.251,1.22-2.033,3.626-1.738,5.348l0.58,3.383     c0.295,1.722-0.728,2.466-2.275,1.653l-3.038-1.597c-1.546-0.813-4.077-0.813-5.623,0l-3.038,1.597     c-1.546,0.813-2.57,0.069-2.275-1.653l0.58-3.383c0.295-1.722-0.487-4.129-1.738-5.348l-2.458-2.396     c-1.251-1.22-0.86-2.423,0.869-2.674l3.397-0.494c1.729-0.251,3.776-1.739,4.549-3.305L24.062,13.988z" fill="#FFFFFF"/></g></g></svg>